<?xml version="1.0" standalone="no"?>
<!DOCTYPE svg PUBLIC "-//W3C//DTD SVG 20010904//EN"
 "http://www.w3.org/TR/2001/REC-SVG-20010904/DTD/svg10.dtd">
<svg version="1.0" xmlns="http://www.w3.org/2000/svg"
 width="650.000000pt" height="629.000000pt" viewBox="0 0 650.000000 629.000000"
 preserveAspectRatio="xMidYMid meet">

<g transform="translate(0.000000,629.000000) scale(0.100000,-0.100000)"
fill="#ffffff" stroke="none">
<path d="M4295 4769 c-104 -15 -227 -40 -273 -55 -202 -65 -326 -206 -326
-369 0 -42 15 -125 23 -125 4 0 15 24 24 53 48 153 189 299 317 331 14 4 3 -5
-25 -20 -144 -76 -253 -226 -280 -388 l-6 -39 46 6 c26 2 84 23 129 45 88 45
221 141 215 157 -2 5 -18 8 -34 6 -17 -1 -41 2 -55 7 -28 11 -26 12 55 31 61
15 71 23 86 69 44 137 111 210 264 291 33 17 53 30 45 30 -8 -1 -100 -14 -205
-30z"/>
<path d="M2295 4544 c-16 -3 -88 -16 -160 -30 -71 -13 -167 -27 -213 -31 l-83
-6 93 -24 c130 -34 220 -82 300 -160 l66 -66 54 6 c29 4 64 9 77 13 36 11 18
-12 -30 -36 l-40 -21 -80 26 c-89 28 -182 35 -216 16 -53 -28 -25 -53 182
-168 252 -140 340 -201 543 -377 143 -125 299 -287 586 -611 436 -492 665
-697 892 -802 33 -15 106 -44 164 -64 120 -43 112 -48 -28 -18 -77 16 -118 32
-196 76 -194 110 -274 179 -761 668 -253 254 -500 496 -550 537 -395 329 -727
478 -1105 496 -261 13 -462 -18 -627 -98 -46 -21 -83 -42 -83 -45 0 -3 26 8
58 24 139 70 301 102 517 102 349 0 622 -87 938 -298 243 -162 392 -295 872
-778 373 -376 495 -484 647 -577 81 -49 79 -53 -13 -18 -119 44 -326 217 -694
580 -303 298 -408 396 -545 507 -395 320 -842 449 -1239 358 -362 -84 -688
-334 -823 -634 -82 -180 -108 -463 -63 -697 82 -432 437 -789 873 -878 233
-48 448 -19 667 89 178 88 316 218 392 372 45 92 54 152 24 182 -48 48 -98 23
-276 -142 -134 -124 -205 -174 -319 -227 -242 -114 -514 -112 -768 3 -382 174
-605 572 -559 994 21 196 68 312 185 460 196 248 518 407 851 420 213 8 392
-32 613 -137 235 -112 392 -234 857 -665 132 -123 270 -249 308 -280 37 -32
67 -59 67 -61 0 -7 -134 90 -365 265 -458 345 -666 463 -933 530 -170 43 -382
49 -542 16 l-65 -14 55 6 c100 11 304 5 396 -11 108 -18 267 -72 376 -127 83
-42 97 -55 47 -44 -55 12 -232 6 -294 -10 -167 -43 -301 -147 -370 -288 -34
-69 -39 -89 -43 -167 -4 -71 0 -100 17 -151 34 -103 111 -186 221 -238 48 -23
68 -26 155 -26 114 0 152 14 217 82 64 66 83 138 54 208 -18 42 -58 63 -137
72 l-61 6 21 -34 c26 -42 26 -69 1 -118 -22 -45 -70 -88 -120 -109 -78 -32
-208 8 -239 74 -18 40 -13 49 14 24 21 -20 36 -24 78 -24 29 1 66 8 84 17 40
21 83 73 83 101 0 21 -3 22 -52 18 -46 -3 -59 0 -97 26 -91 61 -114 151 -66
248 14 28 35 60 48 72 l23 21 -4 -68 c-4 -60 -1 -71 20 -96 21 -24 34 -29 84
-33 49 -3 63 0 87 18 31 24 28 40 -9 40 -63 0 -82 75 -40 158 35 68 92 117
156 132 69 16 194 8 282 -20 77 -23 175 -93 507 -359 215 -172 287 -227 374
-285 31 -22 57 -41 57 -43 0 -5 -99 50 -260 144 -174 102 -198 97 -60 -11 294
-232 604 -382 935 -452 244 -52 616 -42 860 21 91 24 371 132 462 179 119 61
292 199 374 298 40 49 37 47 -39 -24 -181 -169 -401 -281 -652 -335 -120 -25
-401 -25 -520 1 -493 107 -823 440 -872 880 -45 402 194 829 544 969 184 73
382 75 558 4 195 -79 329 -218 398 -416 23 -67 26 -91 26 -206 0 -124 -2 -135
-38 -239 -20 -59 -35 -111 -31 -114 22 -23 106 152 126 262 23 134 -12 305
-88 435 -46 77 -166 192 -259 249 -324 195 -737 153 -998 -103 -121 -118 -200
-253 -252 -430 -35 -123 -44 -322 -20 -445 44 -217 134 -386 294 -552 48 -49
85 -93 83 -97 -6 -10 126 -96 214 -140 91 -45 210 -87 305 -107 64 -14 64 -14
12 -8 -64 6 -237 61 -313 99 -335 169 -646 504 -924 995 -191 337 -377 590
-576 785 l-113 110 102 -108 c224 -239 345 -411 577 -822 143 -254 292 -454
474 -636 158 -158 271 -242 435 -324 71 -36 126 -65 122 -65 -15 0 -192 72
-240 97 -250 133 -429 314 -836 848 -254 333 -376 480 -515 620 -164 164 -329
294 -470 369 -57 30 -52 31 70 11 121 -20 205 -20 205 0 0 30 -41 102 -82 144
-83 87 -203 140 -322 142 -55 1 -58 2 -26 10 135 33 372 -84 434 -214 8 -18
25 -42 38 -53 23 -19 23 -19 7 1 -9 11 -19 47 -23 80 -13 122 -97 229 -215
275 -56 22 -214 35 -286 24z"/>
<path d="M1140 4344 c0 -34 37 -169 60 -214 28 -56 83 -114 125 -135 44 -20
124 -22 160 -3 l28 15 -60 12 c-58 11 -134 51 -162 85 -8 9 9 1 38 -18 29 -20
69 -40 89 -46 43 -12 122 -13 122 -2 0 27 -64 107 -124 155 l-38 31 7 -33 c5
-24 4 -31 -4 -27 -6 4 -11 13 -11 20 0 21 -33 43 -74 49 -53 8 -111 49 -135
94 -15 29 -20 33 -21 17z"/>
<path d="M3068 4209 c-23 -13 -33 -71 -17 -100 16 -32 28 -39 66 -39 54 0 92
69 60 111 -27 35 -76 48 -109 28z"/>
<path d="M3710 4159 c-7 -11 -10 -23 -7 -25 2 -2 9 7 15 21 14 30 7 33 -8 4z"/>
<path d="M3670 4063 c-51 -138 -64 -218 -64 -403 0 -189 13 -282 61 -433 53
-169 154 -362 266 -512 60 -80 268 -295 286 -295 5 0 -41 51 -102 113 -266
267 -438 603 -488 955 -26 182 0 452 56 586 9 21 14 40 12 43 -3 2 -15 -22
-27 -54z"/>
<path d="M3221 3993 c-33 -40 -7 -93 44 -93 51 0 74 75 33 104 -32 23 -54 20
-77 -11z"/>
<path d="M4565 3999 c-241 -37 -432 -176 -541 -391 -86 -171 -116 -407 -76
-598 63 -304 239 -533 518 -673 163 -82 326 -117 548 -118 274 -1 493 62 721
209 68 43 228 173 242 196 4 6 -13 -6 -37 -27 -221 -190 -431 -289 -685 -324
-108 -15 -111 -15 -168 7 -62 23 -149 87 -168 121 -7 13 4 6 26 -16 37 -36
131 -87 188 -101 25 -6 27 -4 27 23 0 39 -42 118 -88 166 -20 20 -39 37 -42
37 -4 0 -5 -15 -3 -32 l4 -33 -21 39 c-24 48 -31 52 -86 61 -47 7 -98 37 -157
93 l-39 37 17 -40 c9 -22 28 -71 42 -110 37 -103 81 -181 125 -220 44 -40 39
-42 -68 -19 -301 62 -542 227 -654 448 -51 100 -64 197 -36 257 25 53 71 105
111 123 30 15 39 15 63 4 15 -7 31 -23 37 -36 23 -51 53 -5 41 63 -4 19 -19
49 -33 66 -25 29 -30 31 -80 27 -34 -3 -65 -13 -83 -27 -17 -12 -30 -18 -30
-14 0 25 82 118 124 140 91 48 246 -29 246 -123 0 -38 6 -41 36 -19 73 50 70
202 -4 247 l-27 17 30 1 c17 0 44 -9 61 -19 114 -70 126 -233 23 -325 -42 -39
-53 -42 -94 -26 -26 10 -27 9 -20 -17 34 -136 142 -172 242 -81 18 17 31 20
74 16 128 -13 252 49 329 164 168 252 63 622 -214 758 -44 22 -107 46 -139 54
-77 20 -208 27 -282 15z m198 -235 c153 -39 245 -129 273 -265 20 -100 -3
-193 -64 -261 -30 -33 -79 -68 -95 -68 -3 0 -7 20 -9 44 -12 105 -94 220 -195
274 -202 107 -436 21 -548 -200 -37 -72 -37 -73 -30 -28 28 172 119 338 230
417 27 20 42 27 33 16 -10 -11 -18 -22 -18 -26 0 -3 8 -4 18 -1 9 3 6 -1 -7
-9 l-24 -14 26 -18 c34 -22 114 -34 102 -15 -6 10 -4 12 9 7 9 -4 33 2 54 13
20 11 50 20 67 21 27 1 23 4 -35 32 -48 24 -79 32 -118 32 l-54 0 44 19 c104
46 234 58 341 30z m-356 -90 c-3 -3 -12 -4 -19 -1 -8 3 -5 6 6 6 11 1 17 -2
13 -5z"/>
<path d="M1785 3893 c-6 -5 -22 -24 -37 -45 l-28 -36 28 9 c15 5 47 14 72 21
34 10 45 18 45 33 0 16 -8 21 -35 23 -19 1 -40 -1 -45 -5z"/>
<path d="M780 3831 c-109 -34 -203 -127 -257 -256 -24 -56 -56 -178 -73 -275
-10 -57 -40 -186 -56 -245 -3 -11 12 7 34 40 81 120 170 195 281 235 73 27 97
57 107 132 9 63 24 51 24 -18 0 -30 4 -54 8 -54 9 0 59 66 123 160 49 73 88
162 89 200 0 21 -5 25 -27 24 -42 0 -91 -14 -158 -41 -99 -42 -173 -109 -233
-211 -34 -57 -35 -37 -2 28 57 113 202 223 324 245 20 4 36 11 36 16 0 23
-160 38 -220 20z"/>
<path d="M3320 3825 c-17 -20 -5 -61 21 -68 27 -7 61 26 52 50 -13 35 -51 44
-73 18z"/>
<path d="M1039 3799 l-24 -20 28 17 c15 9 27 18 27 20 0 8 -8 4 -31 -17z"/>
<path d="M3390 3686 c-27 -33 18 -72 48 -42 13 13 14 20 6 34 -15 23 -38 26
-54 8z"/>
<path d="M1863 3621 c-37 -23 -47 -50 -39 -96 14 -74 103 -100 157 -46 80 81
-21 203 -118 142z"/>
<path d="M3802 3628 c-18 -18 -15 -56 6 -66 9 -6 27 -6 40 -1 38 14 24 79 -18
79 -9 0 -21 -5 -28 -12z"/>
<path d="M1472 3593 c-110 -54 -62 -223 63 -223 104 0 156 131 81 206 -39 39
-88 45 -144 17z"/>
<path d="M2160 3543 c-25 -32 -20 -69 12 -95 27 -23 49 -23 82 3 32 25 35 70
6 99 -29 29 -74 26 -100 -7z"/>
<path d="M3435 3560 c-9 -15 4 -30 26 -30 12 0 19 7 19 20 0 21 -33 29 -45 10z"/>
<path d="M3761 3481 c-8 -15 -7 -23 5 -35 21 -22 56 -3 52 27 -4 30 -43 35
-57 8z"/>
<path d="M2420 3472 c-8 -2 -21 -11 -27 -20 -35 -43 8 -102 60 -83 62 24 31
122 -33 103z"/>
<path d="M3476 3452 c-8 -13 11 -35 23 -28 16 10 14 36 -3 36 -8 0 -17 -4 -20
-8z"/>
<path d="M3754 3375 c-4 -9 -2 -21 4 -27 15 -15 44 -1 40 19 -4 23 -36 29 -44
8z"/>
<path d="M3505 3361 c-6 -11 9 -23 19 -14 9 9 7 23 -3 23 -6 0 -12 -4 -16 -9z"/>
<path d="M2582 3351 c-8 -5 -12 -21 -10 -37 2 -25 7 -29 32 -29 36 0 54 36 30
60 -17 17 -33 19 -52 6z"/>
<path d="M3754 3289 c-3 -6 -2 -15 4 -21 13 -13 32 -2 32 18 0 16 -26 19 -36
3z"/>
<path d="M2734 3225 c-8 -21 2 -45 19 -45 21 0 38 25 31 44 -8 20 -43 21 -50
1z"/>
<path d="M3766 3223 c-11 -11 -6 -23 9 -23 8 0 15 4 15 9 0 13 -16 22 -24 14z"/>
<path d="M3770 3150 c0 -5 5 -10 10 -10 6 0 10 5 10 10 0 6 -4 10 -10 10 -5 0
-10 -4 -10 -10z"/>
<path d="M2852 3123 c2 -10 10 -18 18 -18 8 0 16 8 18 18 2 12 -3 17 -18 17
-15 0 -20 -5 -18 -17z"/>
<path d="M4219 3020 c-34 -20 -31 -88 5 -112 24 -17 65 -8 85 18 12 15 21 32
21 39 0 7 -9 24 -21 39 -21 27 -59 34 -90 16z"/>
<path d="M2620 2997 c-38 -20 -47 -43 -30 -75 22 -39 72 -43 95 -8 34 51 -13
109 -65 83z"/>
<path d="M2373 2978 c-27 -13 -47 -59 -38 -87 7 -23 53 -51 83 -51 30 0 62 42
62 83 0 56 -51 82 -107 55z"/>
<path d="M2784 2926 c-3 -8 -4 -25 -2 -38 2 -18 9 -23 32 -23 36 0 56 27 40
53 -14 22 -62 28 -70 8z"/>
<path d="M2921 2857 c-14 -17 -6 -43 16 -51 22 -9 45 13 41 38 -4 25 -40 33
-57 13z"/>
<path d="M4254 2785 c-19 -29 -11 -60 18 -76 49 -26 100 40 63 81 -25 27 -61
25 -81 -5z"/>
<path d="M3027 2784 c-11 -11 5 -34 24 -34 12 0 19 7 19 20 0 19 -28 28 -43
14z"/>
<path d="M3124 2709 c-3 -6 -1 -16 5 -22 9 -9 14 -8 21 3 9 15 4 30 -10 30 -5
0 -12 -5 -16 -11z"/>
<path d="M3190 2640 c0 -5 5 -10 10 -10 6 0 10 5 10 10 0 6 -4 10 -10 10 -5 0
-10 -4 -10 -10z"/>
<path d="M4354 2636 c-12 -31 0 -51 31 -51 27 0 30 3 30 30 0 25 -4 30 -28 33
-17 2 -29 -2 -33 -12z"/>
<path d="M4462 2548 c-17 -17 -15 -45 4 -52 19 -7 44 10 44 30 0 20 -34 36
-48 22z"/>
<path d="M1382 2470 c-47 -63 -111 -74 -173 -29 -30 21 -51 22 -104 4 -15 -5
-12 0 10 19 l30 27 -86 -4 c-53 -3 -98 -11 -120 -22 -38 -19 -69 -44 -69 -55
0 -13 122 -60 177 -69 28 -4 66 -6 85 -5 l33 3 -35 -9 c-48 -13 -160 6 -222
37 -40 20 -34 1 15 -49 73 -76 185 -88 306 -32 84 38 117 68 152 139 35 71 35
92 1 45z"/>
<path d="M4544 2465 c-7 -18 3 -35 21 -35 15 0 24 19 18 38 -6 17 -32 15 -39
-3z"/>
<path d="M4640 2394 c0 -9 5 -14 12 -12 18 6 21 28 4 28 -9 0 -16 -7 -16 -16z"/>
<path d="M4710 2354 c0 -8 5 -12 10 -9 6 3 10 10 10 16 0 5 -4 9 -10 9 -5 0
-10 -7 -10 -16z"/>
<path d="M610 2194 c-36 -14 -72 -27 -80 -30 -12 -4 -11 -8 5 -20 19 -15 19
-15 -7 -9 -22 6 -35 1 -63 -23 -37 -33 -84 -47 -140 -40 -47 5 -35 -4 55 -42
103 -43 183 -50 244 -21 57 28 86 73 86 135 0 29 -4 45 -10 41 -5 -3 -10 -13
-10 -22 0 -35 -83 -114 -117 -113 -4 1 9 10 29 21 21 10 45 30 53 43 21 31 37
88 27 97 -4 4 -36 -4 -72 -17z"/>
<path d="M5462 2088 c6 -18 28 -21 28 -4 0 9 -7 16 -16 16 -9 0 -14 -5 -12
-12z"/>
<path d="M5363 2064 c-8 -21 13 -42 28 -27 13 13 5 43 -11 43 -6 0 -13 -7 -17
-16z"/>
<path d="M5227 2034 c-12 -13 -8 -42 8 -48 25 -9 46 5 43 28 -3 21 -37 34 -51
20z"/>
<path d="M3985 2016 c-43 -19 -106 -72 -170 -143 l-56 -62 47 21 c39 17 59 19
113 14 58 -5 68 -3 88 16 23 22 33 12 11 -10 -25 -25 20 -12 68 21 47 31 91
94 76 108 -7 7 -102 -4 -137 -16 -16 -6 -17 -5 -5 4 8 6 40 16 70 22 l55 12
-30 13 c-39 17 -92 17 -130 0z"/>
<path d="M5082 1998 c-29 -29 -2 -72 40 -66 42 6 32 78 -11 78 -9 0 -22 -5
-29 -12z"/>
<path d="M4408 1964 c-51 -27 -63 -82 -28 -126 37 -48 113 -44 146 7 14 22 15
32 5 65 -19 64 -67 85 -123 54z"/>
<path d="M4906 1949 c-23 -33 0 -79 40 -79 14 0 30 10 40 25 15 23 15 27 0 50
-20 31 -59 33 -80 4z"/>
<path d="M4676 1918 c-35 -49 -7 -108 50 -108 62 0 94 58 58 108 -21 31 -87
31 -108 0z"/>
</g>
</svg>
