<?xml version="1.0" standalone="no"?>
<!DOCTYPE svg PUBLIC "-//W3C//DTD SVG 20010904//EN"
 "http://www.w3.org/TR/2001/REC-SVG-20010904/DTD/svg10.dtd">
<svg version="1.0" xmlns="http://www.w3.org/2000/svg"
 width="2000.000000pt" height="1000.000000pt" viewBox="0 0 2000.000000 1000.000000"
 preserveAspectRatio="xMidYMid meet">

<g transform="translate(0.000000,1000.000000) scale(0.100000,-0.100000)"
fill="##000000" stroke="none">
<path d="M12940 8723 c-72 -11 -161 -56 -325 -163 -186 -121 -371 -232 -606
-364 -210 -117 -305 -201 -356 -314 -66 -143 70 -234 330 -219 181 10 390 83
467 162 27 28 42 35 73 35 40 0 324 88 388 121 20 10 50 29 67 43 l30 26 46
-20 c25 -12 83 -29 128 -39 76 -17 262 -65 298 -77 8 -3 -19 -16 -60 -30 -273
-92 -506 -266 -585 -438 -34 -73 -65 -182 -85 -296 -6 -36 -34 -148 -63 -250
-49 -176 -52 -191 -52 -305 0 -103 4 -133 28 -212 32 -104 34 -138 23 -303 -9
-134 1 -164 72 -214 73 -52 199 -46 268 12 44 37 94 116 114 178 25 81 25 167
2 325 l-17 115 38 17 c50 21 76 80 93 212 27 198 34 237 58 283 l24 47 7 -29
c4 -15 4 -69 -1 -120 -12 -126 -8 -189 16 -276 30 -108 47 -208 58 -345 16
-182 66 -295 193 -430 25 -27 55 -71 66 -96 55 -124 231 -207 331 -155 70 37
121 128 122 216 0 81 -14 120 -76 207 -31 42 -77 115 -102 161 l-45 85 -10
159 c-5 87 -7 164 -4 171 2 7 25 18 50 24 50 14 118 81 138 138 12 32 16 34
138 65 69 18 132 35 138 37 7 3 -12 -46 -41 -109 -81 -171 -126 -336 -146
-537 -14 -147 -12 -687 3 -730 19 -54 57 -76 130 -75 66 0 118 21 175 69 64
54 106 185 118 372 5 77 11 103 26 119 33 36 49 111 47 216 l-2 97 44 34 c53
40 97 121 106 195 4 34 10 52 20 52 7 0 75 31 149 70 l136 69 39 -19 c86 -44
159 -54 429 -55 140 -1 318 -7 395 -15 227 -21 417 -3 609 57 45 13 171 69
281 124 249 124 286 133 505 125 120 -4 195 -13 335 -41 495 -97 974 -161
1355 -179 l105 -5 -105 15 c-725 102 -929 133 -1185 180 -461 83 -589 96 -738
73 -103 -16 -169 -44 -272 -113 -104 -70 -212 -118 -340 -151 -160 -41 -266
-48 -669 -42 -400 6 -480 14 -630 62 l-86 27 0 62 c0 43 -6 70 -20 94 -16 25
-17 32 -5 32 15 0 120 -37 345 -123 210 -80 268 -90 475 -82 272 10 419 41
579 121 192 97 255 179 234 309 l-10 60 45 67 c66 97 89 166 90 268 1 94 -18
150 -52 150 -28 0 -95 -81 -121 -147 -28 -72 -37 -194 -20 -270 12 -54 11 -55
-17 -85 -52 -56 -199 -175 -301 -242 -167 -111 -317 -164 -495 -173 -152 -8
-208 4 -547 117 -162 54 -319 103 -348 109 -137 28 -289 4 -579 -89 -310 -100
-457 -120 -584 -80 -35 11 -75 27 -89 34 -25 14 -25 14 31 39 71 31 134 88
150 134 21 65 -9 166 -72 238 -89 102 -274 116 -367 28 -33 -32 -34 -34 -30
-95 5 -75 37 -149 101 -233 51 -67 46 -76 -28 -55 -52 15 -77 39 -105 104 -44
98 -44 215 1 277 61 87 341 150 913 209 392 39 449 54 669 174 112 61 168 86
329 151 81 32 95 57 54 92 -53 45 -108 26 -295 -101 -162 -110 -264 -164 -394
-208 -220 -75 -498 -37 -790 108 -102 50 -158 92 -198 147 -26 36 -28 42 -14
56 25 28 45 88 45 135 0 82 -35 130 -65 90 -24 -32 -53 -117 -57 -169 l-4 -50
-49 2 c-28 0 -106 19 -175 41 -69 22 -154 45 -190 51 -90 17 -156 50 -152 76
24 167 -1 255 -70 255 -21 0 -33 -8 -48 -32 -34 -56 -24 -139 26 -220 l24 -37
-28 -19 c-50 -35 -106 -59 -251 -106 -175 -57 -193 -57 -203 1 -11 69 -54 133
-89 133 -25 0 -49 -50 -49 -101 0 -35 6 -48 39 -80 l39 -39 -39 -35 c-45 -40
-117 -78 -214 -113 -97 -34 -260 -42 -351 -17 -79 21 -134 67 -134 111 0 52
44 127 108 185 61 55 84 70 366 230 88 50 221 129 295 177 242 153 290 180
378 212 138 49 211 55 457 35 174 -14 273 -16 571 -10 557 11 712 -13 1434
-216 507 -143 672 -177 897 -186 160 -7 231 1 574 58 129 22 327 48 440 59
346 35 768 91 1300 175 184 29 782 146 777 151 -2 3 -51 -2 -108 -10 -57 -8
-176 -25 -264 -36 -88 -12 -335 -48 -550 -80 -726 -110 -960 -140 -1300 -164
-184 -14 -212 -18 -355 -60 -203 -58 -250 -66 -399 -66 -218 0 -403 38 -876
180 -434 130 -720 199 -970 232 -115 15 -414 16 -810 4 -247 -7 -284 -6 -428
13 -149 20 -228 24 -287 14z m68 -397 c25 -51 16 -192 -11 -183 -20 6 -67 91
-74 130 -12 75 55 117 85 53z m699 -162 c6 -17 -7 -88 -27 -139 -9 -23 -13
-26 -20 -15 -14 23 -12 96 4 135 16 38 33 45 43 19z m-1276 -110 c10 -16 20
-48 24 -71 5 -35 4 -43 -8 -43 -24 0 -67 58 -67 90 0 65 22 75 51 24z m2937
-126 c7 -7 12 -15 12 -18 0 -10 -65 -36 -150 -61 -41 -12 -92 -30 -112 -40
-56 -29 -56 -23 0 21 120 96 215 133 250 98z m-1729 -50 c28 -46 100 -99 216
-157 119 -59 225 -101 320 -126 39 -10 73 -21 78 -25 4 -3 -50 -12 -121 -18
-70 -7 -193 -23 -274 -37 -336 -56 -457 -105 -509 -207 -20 -38 -21 -39 -34
-20 -19 26 -81 55 -104 47 -33 -10 -63 -51 -59 -81 3 -26 47 -70 128 -127 l25
-17 -43 -123 c-23 -67 -49 -167 -57 -222 -25 -158 -52 -221 -86 -199 -5 3 -20
27 -34 53 -13 27 -38 60 -55 74 -48 41 -130 49 -130 13 0 -23 77 -114 135
-159 51 -39 54 -44 65 -105 31 -178 23 -314 -22 -407 -24 -47 -82 -111 -120
-131 -42 -22 -119 -18 -159 9 -56 37 -67 72 -78 262 -6 112 -17 201 -31 260
-31 125 -24 245 23 415 19 69 52 189 72 268 79 306 167 456 348 591 89 67 270
151 402 186 73 20 81 18 104 -17z m3212 -195 c22 -26 17 -137 -10 -221 -23
-70 -86 -175 -106 -176 -18 -1 -30 131 -18 199 18 104 77 215 114 215 4 0 13
-7 20 -17z m-3115 -354 c35 -11 94 -69 119 -118 9 -18 19 -56 22 -85 7 -68
-21 -110 -100 -149 -87 -43 -122 -46 -158 -11 -59 56 -128 174 -143 245 -22
101 113 163 260 118z m-467 -35 c22 -28 46 -102 37 -111 -8 -9 -119 50 -130
68 -7 12 -5 24 7 43 23 34 59 34 86 0z m3460 -172 c1 -48 -21 -92 -65 -132
-47 -42 -194 -119 -284 -149 -68 -22 -234 -61 -260 -60 -8 0 35 25 96 57 142
73 318 191 419 281 86 76 93 76 94 3z m-1746 -158 c3 -4 -1 -17 -10 -30 -25
-39 -9 -87 47 -146 l48 -50 -36 -15 c-21 -8 -72 -32 -114 -54 -42 -21 -85 -39
-95 -39 -10 0 -26 13 -36 29 -48 82 -162 134 -212 97 -17 -12 -17 -17 -5 -46
15 -37 86 -96 148 -124 39 -18 42 -21 42 -60 0 -23 -5 -58 -11 -80 -11 -42
-87 -129 -95 -109 -16 37 -70 105 -98 123 -40 24 -82 26 -90 4 -28 -74 52
-184 134 -184 23 0 23 -2 16 -86 -7 -89 -24 -174 -35 -173 -3 0 -20 21 -36 46
-60 90 -135 102 -135 21 0 -52 29 -99 77 -124 21 -10 42 -23 46 -29 21 -26
-18 -275 -54 -346 -35 -69 -114 -119 -189 -119 -66 0 -70 18 -70 347 0 291 12
528 31 638 17 94 57 212 110 323 39 80 56 105 77 113 38 15 207 58 267 68 59
10 269 14 278 5z m-1468 -84 c27 -6 66 -8 87 -5 33 6 46 2 99 -34 34 -23 68
-41 76 -41 8 0 13 -3 11 -7 -2 -5 -12 -24 -22 -44 -16 -32 -17 -40 -5 -65 8
-17 31 -37 55 -48 l41 -19 -1 -139 c0 -76 -3 -138 -4 -138 -2 0 -15 9 -29 20
-16 12 -41 20 -64 20 -33 0 -40 -4 -45 -25 -9 -35 2 -68 32 -105 44 -51 114
-76 140 -50 10 10 114 -159 157 -255 42 -92 30 -204 -28 -262 -27 -27 -40 -33
-76 -33 -65 0 -91 9 -83 29 13 33 16 98 4 139 -13 49 -71 119 -106 128 -29 7
-70 -17 -79 -46 -3 -11 -10 -20 -14 -20 -13 0 -119 152 -139 200 -25 60 -47
152 -67 285 -9 61 -30 167 -46 237 -29 125 -35 203 -23 291 l7 46 36 -24 c20
-13 58 -29 86 -35z m1572 21 c23 -33 33 -121 15 -121 -17 0 -101 60 -111 79
-40 74 48 113 96 42z m-1057 -157 c-44 -45 -74 -65 -116 -78 -19 -6 -22 -2
-28 31 -3 21 -9 48 -12 60 -6 21 -3 22 67 26 41 1 87 4 104 5 l29 2 -44 -46z
m-183 -38 c5 -42 4 -46 -13 -40 -47 17 -58 52 -27 86 22 25 34 11 40 -46z
m837 15 c30 -20 55 -55 56 -78 0 -9 -11 -8 -42 3 -51 18 -108 60 -108 80 0 21
59 18 94 -5z m-1727 -16 c48 -20 71 -41 95 -89 l19 -38 -51 28 c-47 26 -110
87 -110 106 0 11 6 10 47 -7z m1593 -281 c30 -26 60 -72 60 -94 0 -15 -43 -12
-68 6 -42 29 -70 114 -38 114 8 0 28 -12 46 -26z m-748 -102 c30 -20 68 -65
68 -81 0 -16 -37 -13 -66 5 -24 16 -54 62 -54 84 0 15 22 12 52 -8z m699 -274
c22 -43 23 -48 8 -48 -24 0 -69 59 -69 91 0 32 0 32 21 13 12 -10 30 -36 40
-56z m-723 -164 c32 -38 52 -94 52 -142 0 -47 -15 -46 -59 4 -47 54 -68 115
-52 151 14 31 24 29 59 -13z"/>
<path d="M11320 6931 c-60 -19 -119 -58 -172 -112 -54 -55 -71 -85 -162 -279
-19 -42 -15 -20 14 76 24 78 24 101 -2 118 -13 8 -25 6 -47 -7 -23 -13 -35
-15 -56 -7 -40 15 -106 12 -150 -9 -74 -33 -106 -83 -208 -316 -100 -229 -103
-234 -149 -265 -31 -21 -57 -52 -93 -112 -27 -46 -72 -109 -99 -140 -42 -47
-57 -58 -83 -58 -81 0 -280 -113 -383 -216 -30 -31 -110 -94 -177 -141 -156
-109 -250 -208 -382 -401 -182 -268 -244 -314 -481 -357 -74 -14 -202 -39
-284 -56 -125 -26 -150 -29 -162 -18 -11 12 -10 34 7 139 28 169 23 401 -11
500 -112 330 -451 558 -773 519 -43 -5 -100 -23 -157 -48 -50 -22 -90 -36 -90
-31 0 18 106 112 163 146 88 51 147 68 224 61 59 -4 92 -18 322 -131 377 -185
517 -219 886 -220 199 0 344 11 504 40 98 18 132 33 182 80 l36 35 48 -21 c27
-12 68 -24 91 -27 36 -5 46 -2 68 20 61 61 13 167 -76 167 -47 0 -93 -22 -109
-52 -12 -22 -12 -22 -40 10 -39 44 -37 68 9 95 20 12 65 41 99 64 95 65 130
79 248 102 61 12 131 29 158 37 36 12 67 14 131 9 l84 -7 39 35 c63 58 107
167 67 167 -9 0 -58 -24 -110 -54 -91 -52 -246 -111 -449 -171 -49 -15 -137
-49 -195 -75 -132 -61 -161 -68 -334 -86 -78 -7 -151 -16 -164 -20 l-23 -7 25
37 c91 135 -6 384 -171 440 -68 23 -122 20 -283 -19 -309 -74 -449 -80 -695
-28 -116 24 -152 27 -330 27 -238 1 -316 -15 -482 -95 -136 -65 -216 -144
-337 -329 -159 -242 -174 -264 -249 -355 -54 -66 -84 -94 -109 -101 -19 -6
-123 -86 -243 -186 -1171 -975 -1756 -1388 -2850 -2010 -464 -264 -846 -474
-1360 -748 -126 -67 -282 -150 -345 -185 -506 -275 -699 -380 -790 -429 -295
-157 112 35 685 324 379 191 604 311 1175 623 673 368 1052 596 1639 985 639
424 1043 730 1816 1372 110 92 207 170 215 175 8 5 -20 -28 -62 -73 -43 -45
-78 -85 -78 -89 0 -5 43 34 96 85 53 51 98 91 101 88 19 -18 -118 -176 -153
-176 -7 0 -15 -4 -18 -9 -10 -16 64 7 100 31 47 31 104 117 111 165 4 31 21
57 85 129 44 49 137 173 206 276 145 218 207 290 300 351 194 127 390 153 842
108 319 -31 483 -25 700 25 103 24 248 30 292 11 100 -42 158 -125 165 -236 7
-101 -10 -123 -143 -193 -60 -32 -120 -58 -134 -58 -36 0 -77 28 -150 104
-170 177 -235 232 -288 242 -42 8 -76 -36 -67 -85 11 -57 34 -92 106 -162 115
-112 284 -180 415 -166 39 4 92 23 175 62 134 64 171 71 332 58 l99 -8 13 -39
c8 -21 28 -54 46 -72 l33 -34 -30 -31 c-16 -17 -41 -37 -56 -45 -78 -41 -448
-70 -682 -54 -297 21 -500 74 -796 207 -212 96 -253 112 -315 124 -102 19
-226 -26 -345 -124 -63 -52 -112 -119 -97 -133 4 -4 60 8 125 26 213 61 378
51 540 -30 192 -97 334 -268 378 -458 24 -99 14 -263 -25 -420 -17 -68 -31
-141 -31 -162 0 -28 -5 -40 -17 -44 -10 -3 -90 -21 -177 -41 -191 -44 -373
-101 -510 -160 -360 -154 -755 -474 -1191 -965 -548 -617 -787 -874 -1270
-1370 -362 -372 -753 -786 -680 -719 542 487 1278 1247 1918 1979 263 300 544
588 677 694 127 100 267 191 403 260 241 123 405 170 1107 320 281 60 336 66
463 55 170 -15 442 -15 512 0 82 18 150 56 285 161 141 111 309 198 580 303
323 125 378 154 506 265 153 133 276 310 455 653 155 298 208 375 384 557 117
121 138 155 133 218 -3 28 -13 62 -24 77 -36 49 -118 61 -189 28 -39 -18 -41
-18 -72 1 -36 21 -116 31 -153 19z m109 -62 c35 -13 36 -14 17 -60 -8 -19 -17
-61 -21 -94 l-6 -60 36 73 c20 39 40 72 45 72 27 0 23 -99 -7 -149 -12 -21 -9
-19 15 7 39 43 58 110 44 151 -14 41 6 56 74 56 47 0 58 -4 86 -32 30 -31 31
-34 20 -71 -9 -29 -44 -72 -133 -163 -178 -183 -264 -302 -412 -570 -156 -283
-255 -426 -384 -553 -169 -167 -402 -299 -708 -402 -246 -82 -323 -124 -486
-263 -107 -91 -203 -122 -374 -120 -94 0 -79 11 40 29 171 26 293 89 500 260
137 113 180 142 336 225 300 161 450 291 578 499 81 133 125 234 276 636 106
281 152 378 216 445 75 80 169 112 248 84z m-541 -183 c1 -2 -12 -32 -30 -67
-27 -53 -33 -78 -36 -149 -3 -76 -1 -90 21 -132 23 -42 25 -53 17 -105 -16
-118 -152 -433 -247 -574 -103 -151 -249 -269 -536 -428 -159 -88 -246 -144
-367 -236 -219 -167 -286 -193 -593 -234 l-138 -18 39 41 c51 54 96 119 167
241 133 229 222 320 441 447 l61 36 12 -39 c6 -21 23 -51 36 -66 24 -26 26
-27 39 -10 25 33 29 96 7 139 l-19 40 101 65 c127 83 183 112 228 119 35 6 37
5 58 -40 34 -70 109 -112 125 -70 18 48 -9 117 -59 150 l-26 17 49 51 c27 28
70 81 96 118 26 37 61 79 78 93 l30 26 44 -41 c53 -48 89 -53 105 -14 17 46
-17 106 -67 118 l-24 6 34 68 c18 37 52 123 76 192 62 183 91 228 167 256 31
11 99 11 111 0z m84 -33 c-5 -27 -5 -27 -14 -4 -8 24 -2 45 11 36 5 -2 6 -17
3 -32z m-30 -73 c1 -15 -14 -70 -32 -122 -17 -51 -34 -100 -37 -108 -9 -31
-23 14 -23 77 0 68 21 142 53 187 17 24 21 26 29 12 5 -9 10 -30 10 -46z
m-592 -294 c0 -17 -45 -84 -73 -107 -34 -29 -64 -33 -93 -14 l-26 17 88 59
c95 63 104 67 104 45z m-1939 -145 c74 -47 293 -290 277 -306 -7 -7 -134 33
-179 55 -102 52 -199 162 -199 225 0 61 33 70 101 26z m2149 -61 c14 -26 13
-40 -4 -40 -18 0 -46 38 -46 63 0 15 3 16 20 7 11 -6 24 -19 30 -30z m-840
-270 c41 -41 13 -108 -39 -95 -14 3 -46 16 -70 27 l-44 21 36 34 c43 39 86 44
117 13z m496 -65 c26 -17 48 -69 40 -90 -5 -13 -9 -13 -27 -3 -20 13 -59 76
-59 98 0 14 22 12 46 -5z m-461 -255 c8 -16 15 -46 15 -67 l-1 -38 -19 24
c-13 15 -20 38 -20 67 0 24 2 44 5 44 2 0 11 -13 20 -30z"/>
</g>
</svg>
