<svg width="88" height="156" viewBox="0 0 88 156" fill="none" xmlns="http://www.w3.org/2000/svg">
<path fill-rule="evenodd" clip-rule="evenodd" d="M52.9378 0.213516C52.2695 0.365402 49.6876 0.790649 47.1968 1.18553C42.1849 1.94492 41.547 2.24867 41.547 3.98007C41.547 4.6787 41.79 5.22546 42.3064 5.71147L43.0657 6.4101L49.4446 5.40771C53.2415 4.83058 56.2487 4.49644 56.8562 4.61795C58.2535 4.89133 59.4381 5.86334 60.1064 7.35175C60.8354 8.96164 60.8354 10.0248 60.1064 10.9057L59.5292 11.6347L40.9698 11.7258L40.9574 11.7258H40.9573H40.9571H40.957H40.9569H40.9567H40.9566C25.9226 11.7958 22.4688 11.8118 22.3628 11.2243C22.3312 11.0491 22.5974 10.8202 22.9431 10.523L22.9572 10.5108C24.0204 9.56914 25.0835 9.23502 29.2449 8.56676C32.7381 7.98962 33.5886 7.74661 34.0139 7.19986C34.7429 6.34935 34.7125 5.37733 33.9227 4.37495C33.1634 3.40294 32.6166 3.37256 27.5743 4.1927C23.0787 4.92171 21.1043 5.77222 19.4033 7.71625C17.277 10.1463 16.4265 14.1558 17.7934 15.4923C18.4595 16.1887 18.6427 16.191 25.9838 16.2812L26.0555 16.2821L33.6494 16.3732V22.2357V28.1285L31.0067 28.25C29.0627 28.3411 27.9995 28.5538 27.0883 29.0398C25.5088 29.8599 23.8381 31.7736 23.3825 33.3227C22.8965 34.9022 22.8965 45.6855 23.3825 47.022C23.4162 47.1206 23.4497 47.2082 23.4801 47.2876C23.557 47.4884 23.6139 47.637 23.604 47.781C23.5756 48.1916 23.0038 48.5646 20.8019 50.0009L20.8018 50.0009L20.7975 50.0038C20.5042 50.195 20.1821 50.4052 19.8286 50.6367C13.875 54.5551 8.13402 61.1162 4.79273 67.8292C-0.340715 78.1568 -1.00897 85.3862 1.17806 106.406C1.99819 114.425 3.69921 127.669 5.09648 137.328C6.09887 144.284 6.40263 145.772 7.19239 147.443C8.92379 151.149 12.7207 154.217 16.6391 155.128C17.52 155.341 27.1794 155.462 43.977 155.462C66.0599 155.462 70.2214 155.401 71.7098 155.007C76.2661 153.822 79.6681 150.876 81.3084 146.714C82.3715 144.011 87.0797 108.714 87.8998 97.3844C88.0821 94.5292 88.0821 94.438 87.3227 93.6786C86.3507 92.7066 85.1661 92.6763 84.2548 93.5875C83.6777 94.1646 83.5258 94.7418 83.3435 97.1414C82.8575 103.794 80.3668 124.054 78.1493 139.454C77.147 146.228 76.1142 148.172 72.5906 149.904L70.8592 150.754H43.977H17.0948L15.5456 149.934C13.9661 149.083 12.1132 147.291 11.3842 145.833C10.7767 144.679 10.4729 142.917 9.19716 134.048C5.82549 110.021 4.24597 93.5571 4.5801 86.0544C4.88386 79.8578 6.73676 73.1145 9.47054 68.4671L10.2907 67.0698H44.2808H78.2405L79.6074 69.8643C81.1565 73.0841 82.6753 77.7619 83.1613 80.8906C83.6169 83.6851 84.0725 84.3838 85.5306 84.3838C87.6265 84.3838 88.1732 83.4421 87.7176 80.5261C85.6217 67.1609 77.39 55.4664 65.0879 48.3585C64.5715 48.0548 64.5412 47.9029 64.8753 46.8094C65.0879 46.05 65.2398 43.5288 65.2398 40.1268C65.2398 33.6265 64.936 32.4114 62.9009 30.4067C61.291 28.8575 59.347 28.1893 56.3702 28.1893H54.3046V22.3268V16.434L57.3422 16.2517C61.6555 15.9783 63.5691 14.8545 64.5108 11.9992C65.5435 8.84013 64.5412 4.73946 62.1415 2.4613C60.076 0.486893 56.2183 -0.454742 52.9378 0.213516ZM49.7483 22.2661V28.1893H43.977H38.2057V22.2661V16.3429H43.977H49.7483V22.2661ZM59.6507 33.7783L60.6835 34.8111V40.1572V45.5033L59.8026 46.4753L58.9217 47.4777L44.5541 47.5688C34.105 47.6295 29.9436 47.5384 29.3057 47.2954C27.6958 46.6271 27.5743 46.1715 27.5743 40.2483C27.5743 37.1196 27.6958 34.5985 27.878 34.2644C28.6678 32.8063 28.9108 32.776 44.22 32.7456H58.618L59.6507 33.7783ZM43.2176 52.0947C53.7275 52.1858 58.2838 52.1251 59.5292 51.8517L61.2606 51.4872L63.8729 52.9756C67.0623 54.8285 71.163 58.109 73.3804 60.5998L75.0511 62.5135H44.3111H13.5712L14.1787 61.663C14.9989 60.5087 18.6135 57.1067 20.6791 55.5575C21.5903 54.8589 23.4129 53.6742 24.719 52.9148C26.5719 51.8517 27.3009 51.6087 27.878 51.7606C28.3033 51.8821 35.1985 52.034 43.2176 52.0947ZM26.3593 71.9298C24.9924 73.2967 26.0251 75.5749 27.9692 75.5749C29.2449 75.5749 30.0954 74.694 30.0954 73.4486C30.0954 71.535 27.7262 70.563 26.3593 71.9298ZM73.836 76.7899C71.892 76.7899 70.8592 74.5118 72.2261 73.1449C73.593 71.778 75.9623 72.75 75.9623 74.6636C75.9623 75.909 75.1118 76.7899 73.836 76.7899ZM38.2057 77.5189C26.7845 80.1616 18.4009 88.1807 15.5153 99.2373C14.4217 103.46 14.4217 109.383 15.5153 113.635C17.9149 122.718 24.5064 130.281 33.1026 133.683C37.1729 135.323 38.6006 135.566 44.1289 135.566C48.5941 135.566 49.5965 135.475 51.6924 134.868C61.9896 131.891 69.7961 124.024 72.5906 113.818C73.1982 111.661 73.2893 110.537 73.2893 106.406C73.2893 102.275 73.1982 101.151 72.5906 98.9943C69.8569 89.0312 62.1415 81.0728 52.3302 78.1264C49.961 77.4278 48.9586 77.3063 44.7364 77.2152C41.547 77.1544 39.2992 77.2455 38.2057 77.5189ZM49.9002 82.2271C58.5876 84.323 65.2398 90.6715 68.0343 99.5715C68.6418 101.546 68.733 102.488 68.733 106.406C68.733 110.324 68.6418 111.266 68.0343 113.24C65.179 122.262 58.4053 128.61 49.4446 130.706C47.1361 131.223 41.8204 131.314 39.2384 130.828C31.7965 129.461 24.8405 123.993 21.4992 116.825C18.492 110.415 18.492 102.396 21.4992 95.9872C24.6886 89.1527 30.703 84.1711 38.0234 82.2575C41.0306 81.4677 46.65 81.4677 49.9002 82.2271ZM36.9907 95.41C36.9907 91.8865 37.0514 91.4916 37.6589 90.8537C38.2968 90.1855 38.4487 90.1551 44.0378 90.1551C49.718 90.1551 49.7787 90.1551 50.5077 90.9145C51.2367 91.6131 51.2671 91.8257 51.2671 95.4708V99.2677H55.064C58.7091 99.2677 58.9217 99.2981 59.6203 100.027C60.3797 100.756 60.3797 100.817 60.3797 106.406C60.3797 111.995 60.3797 112.056 59.6203 112.785C58.9217 113.514 58.7091 113.544 55.064 113.544H51.2671V117.341C51.2671 120.986 51.2367 121.199 50.5077 121.897C49.7787 122.657 49.718 122.657 44.0986 122.657H44.0985C43.7812 122.657 43.4781 122.657 43.1884 122.658C39.7642 122.663 38.2276 122.665 37.5402 121.902C36.9807 121.281 36.9838 120.153 36.9894 118.107V118.107C36.99 117.892 36.9907 117.668 36.9907 117.432V113.544H33.133C28.8197 113.514 28.3337 113.362 27.878 111.691C27.4832 110.324 27.4832 102.457 27.878 101.029C28.0603 100.392 28.4552 99.7537 28.7893 99.5715C29.0931 99.4196 31.0675 99.2677 33.1634 99.2677H36.9907V95.41ZM47.4702 103.065C46.7412 102.366 46.7108 102.153 46.7108 98.5083V94.7114H44.1593H41.6077L41.4862 98.6906L41.4805 98.9403C41.4249 101.357 41.3969 102.578 40.7721 103.195C40.1338 103.825 38.8725 103.825 36.3224 103.824H36.3224L36.049 103.824H32.1306V106.406V108.988H36.049L36.3224 108.988H36.3224C38.8725 108.987 40.1338 108.987 40.7721 109.617C41.3969 110.234 41.4249 111.455 41.4805 113.872V113.872L41.4862 114.121L41.6077 118.1H44.1593H46.7108V114.304C46.7108 110.659 46.7412 110.446 47.4702 109.747C48.1688 109.018 48.3814 108.988 52.0265 108.988H55.8234V106.406V103.824H52.0265C48.3814 103.824 48.1688 103.794 47.4702 103.065ZM11.7791 80.1312C10.4122 81.4981 11.4449 83.7763 13.389 83.7763C14.6647 83.7763 15.5152 82.8954 15.5152 81.65C15.5152 79.7363 13.146 78.7643 11.7791 80.1312ZM69.5835 136.326C67.6394 136.326 66.6067 134.048 67.9736 132.681C69.3405 131.314 71.7097 132.286 71.7097 134.199C71.7097 135.445 70.8592 136.326 69.5835 136.326ZM20.1627 137.298C19.0692 138.847 19.9501 140.882 21.7422 140.943C23.1091 140.973 23.9292 140.153 23.9292 138.756C23.9292 137.358 23.1698 136.629 21.7118 136.629C20.9221 136.629 20.4968 136.812 20.1627 137.298ZM53.7883 146.35C51.8442 146.35 50.8115 144.071 52.1784 142.705C53.5453 141.338 55.9145 142.31 55.9145 144.223C55.9145 145.469 55.064 146.35 53.7883 146.35Z" fill="black"/>
</svg>
