<?xml version="1.0" encoding="UTF-8"?>
<svg version="1.1" xmlns="http://www.w3.org/2000/svg" width="474" height="576">
<path d="M0 0 C156.42 0 312.84 0 474 0 C474 190.08 474 380.16 474 576 C317.58 576 161.16 576 0 576 C0 385.92 0 195.84 0 0 Z " fill="#ffffff" transform="translate(0,0)"/>
<path d="M0 0 C2.65269297 9.85033324 3.8045012 19.54164321 4.76611328 29.66601562 C5.11431095 33.14072302 5.55495915 36.59877123 6 40.0625 C10.14513372 72.83190362 13.54178995 107.35518542 7 140 C6.79600586 141.05815918 6.59201172 142.11631836 6.38183594 143.20654297 C2.77026168 161.75594584 -2.14090277 179.74948706 -7.8125 197.76171875 C-8.09673828 198.67695313 -8.38097656 199.5921875 -8.67382812 200.53515625 C-9.20826242 202.25090512 -9.75315825 203.96344528 -10.31054688 205.671875 C-12.66648092 213.21852552 -10.80283971 217.88942113 -8.0625 225.1875 C-7.75892578 226.00484619 -7.45535156 226.82219238 -7.14257812 227.66430664 C-4.06560165 235.90959423 -0.87028547 244.10930223 2.30859375 252.31567383 C4.80694244 258.79765843 7.19330464 265.30106001 9.4375 271.875 C12.21829559 280.01504022 15.32425262 288.00642971 18.5 296 C21.56826049 303.72471861 24.58348407 311.43951636 27.25 319.3125 C30.63408312 329.27484809 34.45213546 339.0651758 38.25 348.875 C44.32874208 364.57829171 50.23995807 380.33091451 55.96289062 396.16748047 C56.87818598 398.66730551 57.83099679 401.14835538 58.796875 403.62890625 C60 407 60 407 60 410 C62.20904295 409.27293404 64.41717189 408.54323916 66.625 407.8125 C67.30071045 407.59053955 67.9764209 407.3685791 68.67260742 407.13989258 C72.06648838 406.0157115 75.43099731 404.85512854 78.76171875 403.5546875 C92.42391226 398.29421695 92.42391226 398.29421695 99 400 C100.65 401.32 102.3 402.64 104 404 C104 419.18 104 434.36 104 450 C71.33 450 38.66 450 5 450 C0.12550607 441.46963563 0.12550607 441.46963563 1 437 C10.19901676 426.4891805 27.23174443 422.74078756 40 418 C39.42464987 411.53630085 37.31215602 405.97128017 35 399.9375 C34.33003394 398.15962361 33.66012401 396.38172574 32.9914093 394.6033783 C32.49525971 393.28474983 31.99822787 391.96645306 31.50041199 390.64845276 C29.3338225 384.90839265 27.20353378 379.15529743 25.08203125 373.3984375 C24.73819397 372.4654332 24.39435669 371.53242889 24.0401001 370.57115173 C23.32777647 368.63797577 22.61549687 366.70478359 21.90325928 364.77157593 C14.60527466 344.97317399 7.22772491 325.20532168 -0.19812012 305.45457458 C-3.50025407 296.67173334 -6.79406732 287.88577599 -10.08782959 279.09979248 C-11.02604268 276.59724463 -11.96439954 274.09475074 -12.90283203 271.59228516 C-13.19574127 270.81119385 -13.48865051 270.03010254 -13.79043579 269.2253418 C-14.36555696 267.69179297 -14.94073104 266.15826399 -15.51596069 264.62475586 C-16.88253991 260.98133761 -18.24812241 257.33755303 -19.61132812 253.69287109 C-21.83187584 247.75846004 -24.0577604 241.82667588 -26.3359375 235.9140625 C-26.67753906 235.0271875 -27.01914062 234.1403125 -27.37109375 233.2265625 C-28.06177072 231.4367148 -28.754602 229.64769741 -29.44921875 227.859375 C-29.78308594 226.99054688 -30.11695313 226.12171875 -30.4609375 225.2265625 C-30.75790527 224.45908691 -31.05487305 223.69161133 -31.36083984 222.90087891 C-32 221 -32 221 -32 219 C-33.04377808 218.63201294 -33.04377808 218.63201294 -34.10864258 218.2565918 C-37.46121414 216.79955508 -40.24400479 214.95878676 -43.26171875 212.89453125 C-43.85241653 212.49223801 -44.44311432 212.08994476 -45.05171204 211.67546082 C-46.93339804 210.39226413 -48.81043947 209.10245059 -50.6875 207.8125 C-51.92874583 206.96506895 -53.17027993 206.11805996 -54.41210938 205.27148438 C-79.99503372 187.80943972 -104.32150232 170.05958499 -123 145 C-123.49725586 144.33645508 -123.99451172 143.67291016 -124.50683594 142.98925781 C-133.91690619 130.37323303 -142.54997689 117.273106 -151 104 C-151.56750977 103.10877441 -152.13501953 102.21754883 -152.71972656 101.29931641 C-159.124264 91.19609279 -165.26408367 80.95526831 -171.1875 70.5625 C-171.74066895 69.59699219 -172.29383789 68.63148438 -172.86376953 67.63671875 C-173.37665527 66.72664063 -173.88954102 65.8165625 -174.41796875 64.87890625 C-174.86938232 64.0804126 -175.3207959 63.28191895 -175.78588867 62.45922852 C-177.14489121 59.70651736 -178.08881421 56.928262 -179 54 C-168.60997008 48.62981253 -158.1076428 43.76503951 -147.29101562 39.31738281 C-144.99852737 38.37439425 -142.70999014 37.42229414 -140.421875 36.46875 C-100.70451119 19.98083204 -60.37468016 8.70651523 -17.8425293 2.45068359 C-14.27065132 1.88436162 -10.74798692 1.15280531 -7.21875 0.3671875 C-4.77901998 -0.03657064 -2.46856259 -0.06084485 0 0 Z " fill="#020202" transform="translate(370,126)"/>
<path d="M0 0 C4.66749298 -0.07637716 9.33245367 -0.04931175 14 0 C14.81629883 0.00580078 15.63259766 0.01160156 16.47363281 0.01757812 C32.28819832 0.1938832 47.9144202 1.67838872 63.625 3.375 C64.61209961 3.48000824 65.59919922 3.58501648 66.61621094 3.69320679 C105.79530262 7.89765131 105.79530262 7.89765131 116 13 C116 13.66 116 14.32 116 15 C115.4831665 15.23074219 114.96633301 15.46148437 114.43383789 15.69921875 C109.2014059 18.03783912 103.97581609 20.39119198 98.75488281 22.75537109 C96.98240973 23.55615696 95.20843435 24.35363022 93.43261719 25.14697266 C91.09607558 26.19182469 88.76621493 27.25034199 86.4375 28.3125 C85.73052979 28.62509766 85.02355957 28.93769531 84.29516602 29.25976562 C80.61927929 30.95473023 77.87067732 32.31533255 76 36 C74.81137243 47.3027676 83.34911441 58.30779521 88.8125 67.5 C89.57228063 68.78500306 90.3317979 70.07016187 91.09106445 71.35546875 C92.63980868 73.97460283 94.19204685 76.59162067 95.74707031 79.20703125 C97.18062937 81.61845455 98.61024283 84.0321012 100.03417969 86.44921875 C109.12340671 101.87280318 118.46243677 117.13529816 128.92578125 131.67626953 C129.87517578 132.99860596 129.87517578 132.99860596 130.84375 134.34765625 C131.42318359 135.14308838 132.00261719 135.93852051 132.59960938 136.75805664 C133.97175933 138.95478834 134.74458457 140.43057272 135 143 C133.64532181 145.70338864 132.26813219 148.1069609 130.625 150.625 C130.16746338 151.33849609 129.70992676 152.05199219 129.23852539 152.78710938 C110.42466058 181.49668386 75.22893559 199.6341658 46.0078125 216.140625 C42.49025223 218.14224636 38.97769906 220.15164595 35.484375 222.1953125 C34.66936523 222.66984863 33.85435547 223.14438477 33.01464844 223.63330078 C29.33330268 226.13065579 28.58370837 229.2336575 27.24145508 233.29541016 C25.199811 239.45487221 23.11498441 245.5984594 21.00390625 251.734375 C14.65785367 270.19166536 8.4225879 288.67558297 2.44378662 307.25540161 C-0.30321258 315.79126713 -3.07388793 324.31301429 -6.03515625 332.77734375 C-6.27328033 333.45892548 -6.51140442 334.1405072 -6.75674438 334.84274292 C-7.86085862 337.99523989 -8.97622785 341.14284877 -10.10644531 344.28613281 C-10.68217285 345.91373535 -10.68217285 345.91373535 -11.26953125 347.57421875 C-11.60573486 348.50838623 -11.94193848 349.44255371 -12.28833008 350.4050293 C-13.01629163 353.05940437 -13.13703529 355.26207823 -13 358 C-11.98164062 358.31227539 -10.96328125 358.62455078 -9.9140625 358.94628906 C-6.10245843 360.11713903 -2.29376376 361.29722194 1.51416016 362.47998047 C3.15629555 362.98865215 4.79918882 363.49488436 6.44287109 363.99853516 C8.81816336 364.72684274 11.1905063 365.46415485 13.5625 366.203125 C14.28679199 366.42309143 15.01108398 366.64305786 15.75732422 366.86968994 C21.51166432 368.67727451 27.6681533 370.6681533 32 375 C32.43785986 380.34189034 32.43642632 383.63838197 29 388 C22.97856959 391.01071521 15.43080245 388.31098766 9.375 386.55078125 C8.46983643 386.29628708 7.56467285 386.04179291 6.63208008 385.77958679 C3.75187 384.96691938 0.87605873 384.13972355 -2 383.3125 C-3.89948416 382.77578793 -5.79922209 382.23997311 -7.69921875 381.70507812 C-16.74526084 379.14677617 -25.75462275 376.49672054 -34.71679688 373.65835571 C-39.78286677 372.05531636 -44.87809902 370.59898449 -50 369.1875 C-58.09970276 366.90482872 -66.12682238 364.42863075 -74.125 361.8125 C-75.16269531 361.47951904 -76.20039062 361.14653809 -77.26953125 360.8034668 C-78.23503906 360.48289307 -79.20054688 360.16231934 -80.1953125 359.83203125 C-81.47946045 359.41014526 -81.47946045 359.41014526 -82.78955078 358.97973633 C-85.11791635 357.94773599 -86.42161825 356.98727063 -88 355 C-88 354.34 -88 353.68 -88 353 C-88.66 353 -89.32 353 -90 353 C-90.76182137 345.07705779 -90.76182137 345.07705779 -88.1875 341.4375 C-81.43166205 338.39074955 -74.88747097 339.5370269 -68.01953125 341.796875 C-60.96932158 344.04171788 -53.85587971 345.92361129 -46.6875 347.75 C-45.45837891 348.06582031 -44.22925781 348.38164062 -42.96289062 348.70703125 C-39.9759534 349.47410462 -36.9883334 350.23838758 -34 351 C-33.89018799 350.15832275 -33.78037598 349.31664551 -33.66723633 348.44946289 C-32.94352405 344.70803193 -31.72282888 341.33354183 -30.32421875 337.80859375 C-26.80051181 328.67031302 -23.79439921 319.38882552 -20.8125 310.0625 C-20.02850343 307.6231569 -19.24342859 305.18416291 -18.45817566 302.745224 C-17.97632383 301.24730078 -17.49537754 299.74908578 -17.01557922 298.25050354 C-14.5260653 290.48324964 -11.93597897 282.75894988 -9.19140625 275.078125 C-7.05004084 269.04717121 -4.97507103 262.99778634 -2.96484375 256.921875 C-2.71521881 256.16749146 -2.46559387 255.41310791 -2.20840454 254.63586426 C-1.19465907 251.56729558 -0.18323373 248.49797417 0.82543945 245.42773438 C1.58006049 243.13318382 2.33809499 240.83979458 3.09765625 238.546875 C3.46040146 237.44599548 3.46040146 237.44599548 3.83047485 236.32287598 C5.70577216 230.70116946 7.86108853 225.24759737 10.21264648 219.80566406 C11.86619617 213.91338717 9.24586643 208.78600597 7 203.375 C-0.07773464 185.73867761 -5.6653044 167.39179851 -10.47363281 149.01171875 C-10.83031556 147.64851565 -11.19179567 146.2865604 -11.55761719 144.92578125 C-19.16099866 116.63536361 -18.64494013 87.32173935 -13.3125 58.625 C-13.04494429 57.1494395 -12.77753148 55.67385309 -12.51025391 54.19824219 C-9.17372349 35.9730212 -5.56007096 17.69410819 0 0 Z " fill="#020202" transform="translate(90,135)"/>
<path d="M0 0 C0.66 0 1.32 0 2 0 C2 12.21 2 24.42 2 37 C-27.37 37 -56.74 37 -87 37 C-87 36.34 -87 35.68 -87 35 C-86.28457031 34.7733667 -85.56914062 34.5467334 -84.83203125 34.31323242 C-81.55399994 33.27347524 -78.27699677 32.23051291 -75 31.1875 C-73.31197266 30.65286133 -73.31197266 30.65286133 -71.58984375 30.10742188 C-62.33686328 27.15837254 -53.37219233 23.7679441 -44.375 20.125 C-38.51815455 17.76108926 -32.66141081 15.48783883 -26.6875 13.4375 C-19.19919483 10.82592026 -12.11904066 7.47206283 -5 4 C-3.82824219 3.46439453 -3.82824219 3.46439453 -2.6328125 2.91796875 C-0.81475887 2.09659902 -0.81475887 2.09659902 0 0 Z " fill="#FAFAFA" transform="translate(472,539)"/>
<path d="M0 0 C1.56002428 -0.1363128 3.12357176 -0.23259126 4.6875 -0.3125 C5.55761719 -0.37050781 6.42773438 -0.42851563 7.32421875 -0.48828125 C10.27483122 0.05015168 11.87951977 0.95459297 13.94322205 3.13441467 C16.36306444 7.40628886 15.63763342 12.72865689 15.55859375 17.4921875 C15.55509666 19.32114059 15.55509666 19.32114059 15.55152893 21.18704224 C15.54179261 23.7642517 15.52000857 26.34143979 15.48706055 28.91845703 C15.43776913 32.85351435 15.42558529 36.78731843 15.41992188 40.72265625 C15.4058306 43.2291799 15.38962432 45.73569274 15.37109375 48.2421875 C15.36573105 49.41530487 15.36036835 50.58842224 15.35484314 51.79708862 C15.15614197 65.52442959 15.15614197 65.52442959 11.3125 69.9375 C7.96824313 71.47405045 5.64539334 71.43996127 2 71 C-3.68421053 67.94736842 -3.68421053 67.94736842 -5 64 C-5.09046585 62.6471105 -5.12788579 61.29023612 -5.12939453 59.93432617 C-5.13254669 59.11884811 -5.13569885 58.30337006 -5.13894653 57.46318054 C-5.1369223 56.58201065 -5.13489807 55.70084076 -5.1328125 54.79296875 C-5.13424759 53.41749626 -5.13424759 53.41749626 -5.13571167 52.01423645 C-5.13639287 50.0665378 -5.13454278 48.11883688 -5.13037109 46.17114258 C-5.12508927 43.23708757 -5.1302828 40.30319043 -5.13671875 37.36914062 C-5.15175753 6.97980053 -5.15175753 6.97980053 0 0 Z " fill="#0A0A0A" transform="translate(221,0)"/>
<path d="M0 0 C11.57769222 4.46858296 19.56660134 19.31655278 26.6875 28.9375 C27.27354004 29.72874268 27.85958008 30.51998535 28.46337891 31.33520508 C30.17978799 33.670286 31.87672726 36.01771714 33.5625 38.375 C34.13758301 39.17494385 34.71266602 39.9748877 35.30517578 40.79907227 C35.84899902 41.57951904 36.39282227 42.35996582 36.953125 43.1640625 C37.44071289 43.85838379 37.92830078 44.55270508 38.43066406 45.26806641 C40.36729902 48.8731483 40.51057183 52.4326013 39.5625 56.375 C37.0925194 59.66830746 34.96961466 61.10697816 30.9375 61.875 C22.97595655 60.69551208 17.40806496 52.08862188 12.8125 46 C12.21904785 45.22414551 11.6255957 44.44829102 11.01416016 43.64892578 C6.90665856 38.24259217 2.88516998 32.77402226 -1.0625 27.25 C-1.54686523 26.57662598 -2.03123047 25.90325195 -2.53027344 25.20947266 C-6.10661896 20.12510564 -9.53710727 14.81286314 -11.125 8.75 C-9.60209086 3.48904114 -5.26498665 0.57436218 0 0 Z " fill="#050505" transform="translate(144.4375,9.625)"/>
<path d="M0 0 C3 2 3 2 5 5 C6.13690295 10.97790906 3.38462637 15.38246492 0.1875 20.25 C-1.77364095 23.03165583 -3.78703316 25.73400876 -5.9140625 28.390625 C-8.03084147 31.03858071 -10.04750627 33.74308593 -12.05957031 36.47070312 C-14.15152363 39.29531586 -16.27282848 42.09704622 -18.40087891 44.89453125 C-19.44000803 46.26269149 -20.47385349 47.63488663 -21.50146484 49.01171875 C-22.89263282 50.86223021 -24.31514923 52.68325465 -25.75 54.5 C-26.16064697 55.05751953 -26.57129395 55.61503906 -26.99438477 56.18945312 C-28.75454383 58.36028132 -30.22009586 59.86038869 -33.02392578 60.36230469 C-36.74198489 60.41114895 -39.99921513 60.30829606 -43 58 C-45.3213473 54.75011379 -45.27014959 51.90752083 -45 48 C-40.86174472 38.93663808 -33.48309266 30.83020709 -27.45605469 22.921875 C-26.12586417 21.16613058 -24.81238928 19.39981886 -23.5078125 17.625 C-8.94843647 -2.12335781 -8.94843647 -2.12335781 0 0 Z " fill="#070707" transform="translate(313,11)"/>
<path d="M0 0 C1 4 1 4 0 7 C-0.66 7 -1.32 7 -2 7 C-2.33 9.31 -2.66 11.62 -3 14 C-5.64465038 10.8745041 -6.84414715 7.91211733 -8 4 C-5.36 2.68 -2.72 1.36 0 0 Z " fill="#131313" transform="translate(199,176)"/>
<path d="M0 0 C2.31 0.66 4.62 1.32 7 2 C4.19195732 4.96404505 1.81684226 7.44499019 -2 9 C-2.6875 7.3125 -2.6875 7.3125 -3 5 C-1.5625 2.25 -1.5625 2.25 0 0 Z " fill="#131313" transform="translate(195,305)"/>
<path d="M0 0 C0.99 0.33 1.98 0.66 3 1 C4.1875 3.5625 4.1875 3.5625 5 6 C4.01 5.67 3.02 5.34 2 5 C1.67 5.99 1.34 6.98 1 8 C0.01 7.67 -0.98 7.34 -2 7 C-2.875 5.125 -2.875 5.125 -3 3 C-1.5625 1.25 -1.5625 1.25 0 0 Z " fill="#0F0F0F" transform="translate(203,246)"/>
<path d="M0 0 C1.65 0 3.3 0 5 0 C5 0.33 5 0.66 5 1 C7.31 1.33 9.62 1.66 12 2 C12 2.99 12 3.98 12 5 C11.34 4.67 10.68 4.34 10 4 C4.95624681 3.69648211 -0.09260374 3.691361 -5 5 C-3.74458443 2.48916886 -2.49936512 2.12874554 0 1 C0 0.67 0 0.34 0 0 Z " fill="#DBDBDB" transform="translate(459,523)"/>
<path d="M0 0 C0.66 0.33 1.32 0.66 2 1 C1.09674384 2.32176485 0.17682097 3.63215066 -0.75 4.9375 C-1.26046875 5.66839844 -1.7709375 6.39929688 -2.296875 7.15234375 C-4.19177915 9.20805399 -5.27425729 9.62669176 -8 10 C-6.34908222 5.70761377 -3.26245434 3.1206085 0 0 Z " fill="#E3E3E3" transform="translate(209,300)"/>
<path d="M0 0 C0.99 0.99 1.98 1.98 3 3 C1.68 5.64 0.36 8.28 -1 11 C-1.66 10.67 -2.32 10.34 -3 10 C-2.01 6.7 -1.02 3.4 0 0 Z " fill="#151515" transform="translate(85,398)"/>
<path d="M0 0 C0.66 0.66 1.32 1.32 2 2 C2.66 1.34 3.32 0.68 4 0 C4.33 0.99 4.66 1.98 5 3 C3.68 4.32 2.36 5.64 1 7 C0.01 5.35 -0.98 3.7 -2 2 C-1.34 1.34 -0.68 0.68 0 0 Z " fill="#111111" transform="translate(163,57)"/>
<path d="M0 0 C1.98 0.66 3.96 1.32 6 2 C6 3.65 6 5.3 6 7 C3.69 5.35 1.38 3.7 -1 2 C-0.67 1.34 -0.34 0.68 0 0 Z " fill="#141414" transform="translate(273,297)"/>
<path d="M0 0 C0.33 1.32 0.66 2.64 1 4 C0.34 4 -0.32 4 -1 4 C-1.33 4.66 -1.66 5.32 -2 6 C-4.475 5.01 -4.475 5.01 -7 4 C-4.61426621 2.10786631 -2.92824652 0.97608217 0 0 Z " fill="#1A1A1A" transform="translate(199,176)"/>
<path d="M0 0 C-2.62535409 2.90664203 -4.21644225 4.17234674 -8 5 C-10.2072358 6.48800372 -10.2072358 6.48800372 -12 8 C-9.82021749 2.45146271 -6.05820197 -0.69236594 0 0 Z " fill="#2A2A2A" transform="translate(146,10)"/>
<path d="M0 0 C2.625 0.375 2.625 0.375 5 1 C4.67 2.98 4.34 4.96 4 7 C2.02 5.35 0.04 3.7 -2 2 C-1.34 1.34 -0.68 0.68 0 0 Z " fill="#E8E8E8" transform="translate(234,1)"/>
<path d="M0 0 C3.875 1.75 3.875 1.75 5 4 C7.01669827 5.13350534 7.01669827 5.13350534 9 6 C8.01 6.495 8.01 6.495 7 7 C3.16917814 5.40382422 1.33343353 4.50015029 -1 1 C-0.67 0.67 -0.34 0.34 0 0 Z " fill="#212121" transform="translate(3,488)"/>
<path d="M0 0 C0.66 0.33 1.32 0.66 2 1 C2 1.99 2 2.98 2 4 C1.34 4 0.68 4 0 4 C-0.33 4.99 -0.66 5.98 -1 7 C-1.99 5.68 -2.98 4.36 -4 3 C-2.68 2.01 -1.36 1.02 0 0 Z " fill="#101010" transform="translate(243,256)"/>
<path d="M0 0 C1 2 1 2 0.44140625 3.9453125 C0.15136719 4.66460937 -0.13867188 5.38390625 -0.4375 6.125 C-0.72496094 6.84945313 -1.01242188 7.57390625 -1.30859375 8.3203125 C-1.53675781 8.87460937 -1.76492187 9.42890625 -2 10 C-3.1875 8.3125 -3.1875 8.3125 -4 6 C-2.87755007 3.70165014 -1.81522119 1.81522119 0 0 Z " fill="#232323" transform="translate(95,430)"/>
<path d="M0 0 C1.98 0.99 3.96 1.98 6 3 C5.34 3.66 4.68 4.32 4 5 C1.375 4.625 1.375 4.625 -1 4 C-0.67 2.68 -0.34 1.36 0 0 Z " fill="#E4E4E4" transform="translate(323,336)"/>
<path d="M0 0 C2 1 2 1 4 4 C2.35 4.66 0.7 5.32 -1 6 C-1.625 4.125 -1.625 4.125 -2 2 C-1.34 1.34 -0.68 0.68 0 0 Z " fill="#F7F7F7" transform="translate(172,330)"/>
<path d="M0 0 C1.65 1.65 3.3 3.3 5 5 C3.02 5.99 3.02 5.99 1 7 C0.34 6.34 -0.32 5.68 -1 5 C-0.34 5 0.32 5 1 5 C1 4.34 1 3.68 1 3 C0.34 2.67 -0.32 2.34 -1 2 C-0.67 1.34 -0.34 0.68 0 0 Z " fill="#E5E5E5" transform="translate(262,289)"/>
<path d="M0 0 C0.33 0.66 0.66 1.32 1 2 C-1.64 2 -4.28 2 -7 2 C-7 1.34 -7 0.68 -7 0 C-3.88407501 -1.03864166 -2.9737344 -1.09036928 0 0 Z " fill="#E4E4E4" transform="translate(392,574)"/>
<path d="M0 0 C0.33 1.32 0.66 2.64 1 4 C1.66 4 2.32 4 3 4 C2.67 5.65 2.34 7.3 2 9 C1.01 9 0.02 9 -1 9 C-0.67 6.03 -0.34 3.06 0 0 Z " fill="#0D0D0D" transform="translate(100,404)"/>
<path d="M0 0 C3.26954202 0.56371414 4.82575883 1.49962266 7 4 C6.01 4.495 6.01 4.495 5 5 C2.375 4.0625 2.375 4.0625 0 3 C0 2.01 0 1.02 0 0 Z " fill="#E9E9E9" transform="translate(301,322)"/>
<path d="M0 0 C0.66 0.33 1.32 0.66 2 1 C1.34 3.64 0.68 6.28 0 9 C-1.76462683 5.91190305 -2 4.76687864 -2 1 C-1.34 0.67 -0.68 0.34 0 0 Z " fill="#1C1C1C" transform="translate(165,168)"/>
<path d="M0 0 C2.0625 2.25 2.0625 2.25 4 5 C3.67 6.32 3.34 7.64 3 9 C0.525 5.04 0.525 5.04 -2 1 C-1.34 0.67 -0.68 0.34 0 0 Z " fill="#1C1C1C" transform="translate(141,29)"/>
<path d="M0 0 C1.5625 1.25 1.5625 1.25 3 3 C2.6875 5.1875 2.6875 5.1875 2 7 C0.4375 5.75 0.4375 5.75 -1 4 C-0.6875 1.8125 -0.6875 1.8125 0 0 Z " fill="#F2F2F2" transform="translate(291,18)"/>
<path d="M0 0 C0.66 0.33 1.32 0.66 2 1 C0.38405168 3.04119788 -1.2856382 5.04072937 -3 7 C-3.66 7 -4.32 7 -5 7 C-5 6.01 -5 5.02 -5 4 C-2.5 1.8125 -2.5 1.8125 0 0 Z " fill="#282828" transform="translate(5,475)"/>
<path d="M0 0 C0.99 0.33 1.98 0.66 3 1 C3.33 1.99 3.66 2.98 4 4 C3.34 4.66 2.68 5.32 2 6 C1.01 5.67 0.02 5.34 -1 5 C-0.67 3.35 -0.34 1.7 0 0 Z " fill="#121212" transform="translate(170,191)"/>
</svg>
