<svg width="115" height="118" viewBox="0 0 115 118" fill="none" xmlns="http://www.w3.org/2000/svg">
<path fill-rule="evenodd" clip-rule="evenodd" d="M52.6841 0.460861C52.0598 1.03693 51.8814 2.37341 51.9929 5.43811C52.0598 7.78848 52.1044 7.90369 52.6841 8.43368C53.4645 9.12496 53.9997 9.12496 54.7578 8.43368C55.3375 7.92673 55.3821 7.76543 55.4713 5.66853L55.5605 3.45643H57.099H58.6375V55.5332V107.61H57.0767H55.5159L55.4713 60.81L55.4044 14.01L54.8693 13.5722C54.5794 13.3418 54.0666 13.1344 53.7321 13.1344C53.3977 13.1344 52.8848 13.3418 52.5949 13.5722L52.0598 14.01L51.9929 60.81L51.9483 107.61H38.347H24.7456V106.573C24.7456 104.131 23.051 101.573 20.8213 100.72L19.7287 100.282L19.6619 93.8073L19.6173 87.3323H20.1524C20.4646 87.3323 20.9774 87.0788 21.3342 86.7793C21.9139 86.2493 21.9585 86.111 22.0254 83.8528C22.1146 80.9494 21.8247 79.7282 20.9105 79.4056C19.3943 78.8525 18.547 79.9816 18.5247 82.5394L18.5024 83.8759H13.597C9.07064 83.8759 8.69159 83.8528 8.69159 83.4611C8.69159 83.1385 8.91456 83.0694 10.2078 83.0694C12.0139 83.0694 13.3963 82.355 14.3328 80.9264C15.1801 79.659 15.3808 78.0921 15.3808 72.2853V67.285H16.9416H18.5024L18.5247 70.3267C18.5247 73.8522 18.77 74.8892 19.6842 75.2118C20.6206 75.5574 21.4679 75.1426 21.7801 74.1979C22.1146 73.207 22.1592 50.9938 21.847 48.4591C21.6017 46.5004 20.8659 44.8413 19.5727 43.4127C18.9706 42.7214 18.77 42.3758 18.9706 42.3066C20.6652 41.7997 21.4679 41.3388 22.2929 40.4171C23.5416 39.0115 23.8537 38.1359 23.8537 36.0159C23.8537 34.0112 23.6085 33.4121 22.5605 32.9743C22.0477 32.7439 21.9362 32.5826 22.0254 32.1447C22.07 31.8221 22.3152 31.5456 22.6497 31.4765C23.6977 31.2 23.9206 30.4165 23.7869 27.7436C23.6531 24.8863 23.051 23.3193 21.5794 22.0289C20.0855 20.6925 18.8815 20.3929 15.0463 20.3929C12.17 20.3929 11.5233 20.462 10.4308 20.8768C7.822 21.9137 5.77065 23.8263 4.522 26.4301C3.83078 27.8588 3.6524 28.6192 3.18416 31.9604C2.872 34.1955 2.69362 36.2924 2.76051 36.9607C3.00578 39.2419 4.85646 41.2697 7.04159 41.6153C7.91118 41.7306 8.02267 41.8227 8.02267 42.3297C8.02267 42.6523 7.71051 43.2744 7.35375 43.7122C6.21659 45.0257 5.56997 46.6387 5.3247 48.6895C5.19092 49.8416 5.12402 57.6071 5.16862 68.3911L5.23551 86.2262L5.85983 86.7793C6.39497 87.2401 6.72943 87.3323 8.04497 87.3323H9.58348V97.4711V107.61H6.9747C3.63011 107.61 2.8274 107.84 1.53416 109.2C0.0848377 110.675 -0.316513 112.311 0.240919 114.408C0.553081 115.583 2.31457 117.403 3.49632 117.726C4.81186 118.118 109.453 118.071 110.679 117.703C111.237 117.518 111.995 116.988 112.597 116.366C114.671 114.223 114.671 111.389 112.597 109.2C111.371 107.886 110.546 107.61 107.647 107.61H105.462V101.895C105.462 98.7615 105.373 95.8581 105.239 95.4203C104.994 94.5217 104.458 94.0378 103.678 94.0378C102.362 94.0378 101.894 95.1208 101.894 98.2085V100.236H100.356H98.8395L98.7057 91.4109C98.6165 86.5719 98.4605 81.779 98.3267 80.7651C98.1037 79.1291 97.0557 73.5296 96.6544 71.8245L96.4983 71.2023H97.9699H99.4415V74.4514C99.4415 78.3686 99.6645 79.2443 100.958 80.6499L101.939 81.6868L101.917 84.9128C101.894 88.6227 102.14 89.6135 103.076 89.9592C104.012 90.3048 104.86 89.89 105.172 88.9453C105.328 88.4844 105.44 86.8254 105.44 85.1432L105.462 82.1477L106.465 81.7098C107.692 81.2029 108.896 79.8203 109.23 78.5069C109.431 77.8156 109.475 73.3914 109.431 62.423L109.364 47.33L108.539 45.5787L108.539 45.5786L108.539 45.5784C108.2 44.8775 107.996 44.4571 107.874 44.0143C107.692 43.351 107.692 42.6374 107.692 40.8549V37.9054L108.472 36.7533L108.521 36.6802C109.05 35.8946 109.394 35.384 109.618 34.8252C110.033 33.788 110.033 32.5847 110.033 29.148V29.1479L110.033 28.9187V23.8493L109.408 22.5359C109.052 21.7985 108.405 20.8998 107.959 20.5081C106.51 19.2638 105.685 19.1255 100.133 19.1255C97.3456 19.1255 94.7145 19.2408 94.2686 19.356C93.0422 19.7247 91.6152 20.9459 90.924 22.2363C89.7422 24.4484 90.2774 27.7896 92.0611 29.3105C92.6409 29.8174 92.7523 30.0939 92.7523 30.9235C92.7523 31.8221 92.6855 31.9604 92.0834 32.1908C91.0578 32.5826 90.6787 33.7808 90.7902 36.0851C90.9463 39.3571 92.4402 41.3619 95.1159 41.9379L96.3645 42.2145L95.2496 43.3896C94.6253 44.0579 93.8226 45.21 93.4882 45.9704L92.8638 47.353L92.7969 58.4136L92.7301 69.4741L93.6442 73.8522C95.1159 80.8803 95.2051 81.802 95.2051 91.6413C95.2051 99.8906 95.1828 100.467 94.826 100.467C94.0902 100.467 92.0834 101.849 91.4145 102.817C90.701 103.831 90.4111 104.73 90.1882 106.504L90.0544 107.61H76.1186H62.2051V54.888C62.2051 21.8216 62.1159 1.88952 61.9821 1.40562C61.6253 0.0921783 61.3801 0.0230408 57.0544 -4.73918e-10C53.4645 -4.73918e-10 53.1078 0.0460892 52.6841 0.460861ZM105.417 22.9046C106.51 23.5037 106.599 23.9184 106.532 29.034L106.465 33.7577L105.885 33.8269C104.882 33.9421 103.968 32.9282 103.79 31.4995C103.567 29.7944 102.786 28.504 101.604 27.9049C100.802 27.4901 100.222 27.421 98.0145 27.421C94.4692 27.421 93.6442 26.9601 93.6442 25.0015C93.6442 23.9415 93.9341 23.3654 94.7145 22.9507C95.5841 22.4437 104.525 22.4207 105.417 22.9046ZM18.8815 24.2641C19.751 24.748 20.2416 25.6467 20.4423 27.0753L20.576 28.1122H17.5213C14.0429 28.1122 13.1956 28.3427 12.4821 29.5409C12.0808 30.2322 12.0362 30.693 12.0362 34.2647V38.2511H9.80645C5.92673 38.2511 5.77065 37.9746 6.46186 32.7899C6.997 28.7114 7.33146 27.6975 8.71389 26.1536C10.4531 24.195 11.8578 23.7111 15.4923 23.8032C17.5213 23.8493 18.3463 23.9645 18.8815 24.2641ZM100.333 31.3382C100.556 31.753 100.49 31.8452 99.7537 32.1678C99.174 32.4213 98.8618 32.4443 98.7057 32.283C98.5719 32.1447 97.9253 32.0295 97.2787 32.0295C96.1638 32.0295 96.0969 32.0065 96.0969 31.4535C96.0969 30.8774 96.1192 30.8774 98.1036 30.8774H98.1037C99.8652 30.8774 100.11 30.9235 100.333 31.3382ZM18.5024 32.1447C18.5024 32.6978 18.4578 32.7208 16.9416 32.7208C15.4254 32.7208 15.3808 32.6978 15.3808 32.1447C15.3808 31.5917 15.4254 31.5687 16.9416 31.5687C18.4578 31.5687 18.5024 31.5917 18.5024 32.1447ZM102.162 35.7164C102.395 35.9377 102.799 36.2644 103.105 36.5124L103.232 36.615L103.79 37.0529L103.121 37.3524C102.764 37.5137 101.894 37.652 101.225 37.652L99.999 37.675L99.9321 36.8224C99.8652 36.0851 99.9544 35.9238 100.49 35.6242C101.315 35.1634 101.537 35.1634 102.162 35.7164ZM96.5429 37.0989C96.5429 37.9746 96.4537 38.7119 96.3422 38.7119C96.253 38.7119 95.8517 38.5967 95.4503 38.4585C94.6476 38.1589 94.0902 37.2372 94.0902 36.1772C94.0902 35.4859 94.0902 35.4859 95.3165 35.4859H96.5429V37.0989ZM20.5092 36.7303C20.5092 37.4215 19.7956 38.3433 18.9929 38.6889C18.6362 38.8502 17.6997 38.9424 16.9193 38.8963L15.4923 38.8272L15.4254 37.8133L15.4227 37.7743C15.3777 37.1145 15.3512 36.7273 15.5292 36.5C15.7819 36.1772 16.4469 36.1772 18.0564 36.1772C20.4869 36.1772 20.5092 36.1772 20.5092 36.7303ZM104.347 40.9932C104.347 41.3158 104.235 41.408 103.901 41.3158C103.344 41.1545 103.321 40.8549 103.856 40.7167C103.96 40.6809 104.064 40.6512 104.147 40.6278C104.223 40.606 104.281 40.5895 104.302 40.5784C104.325 40.5784 104.347 40.7628 104.347 40.9932ZM15.849 44.8874C16.6071 45.2792 17.2983 45.9013 17.722 46.5235L18.3909 47.5143L18.4578 55.6715L18.5247 63.8286H16.9639H15.4254L15.3362 56.7314L15.2693 49.6573L14.6004 48.413C13.8423 47.0074 12.7497 46.1317 11.2112 45.74L10.1855 45.4635L11.3673 44.8644C12.9727 44.0348 14.2882 44.0348 15.849 44.8874ZM103.031 44.5879C103.187 44.7031 103.054 44.8644 102.608 45.0487C102.251 45.21 101.537 45.74 101.047 46.2009C99.4638 47.6526 99.4415 47.906 99.4415 58.4596V67.7459H97.7692H96.0969V58.2292C96.0969 52.1229 96.1861 48.413 96.3422 47.8369C96.6544 46.6848 98.1929 45.0026 99.3301 44.5648C100.222 44.2422 102.474 44.2422 103.031 44.5879ZM105.573 48.7356C106.086 49.2656 106.131 49.4499 106.131 51.7311V54.1506H104.458H102.786V51.7311C102.786 49.4499 102.831 49.2656 103.344 48.7356C103.633 48.413 104.146 48.1595 104.458 48.1595C104.771 48.1595 105.283 48.413 105.573 48.7356ZM11.3004 49.5882L11.8132 50.0721V64.4277V78.7834L11.2335 79.2443C10.4754 79.8434 10.0294 79.8434 9.27132 79.2443L8.69159 78.7834V64.4047V50.026L9.18213 49.5421C9.80645 48.943 10.6538 48.943 11.3004 49.5882ZM106.131 67.6307V77.6774L105.573 78.2304C105.283 78.553 104.771 78.8065 104.458 78.8065C104.146 78.8065 103.633 78.553 103.344 78.2304L102.786 77.6774V67.6307V57.6071H104.458H106.131V67.6307ZM16.2727 93.7843V100.236H14.6004H12.9281V93.7843V87.3323H14.6004H16.2727V93.7843ZM19.9963 104.154C20.8659 104.684 21.401 105.697 21.401 106.803V107.61H17.1646H12.9281V105.651V103.693H16.1166C18.8592 103.693 19.372 103.762 19.9963 104.154ZM101.894 105.651V107.61H97.7692H93.6442V106.688C93.6442 105.444 94.1348 104.545 95.0267 104.084C95.6064 103.785 96.4537 103.693 98.8395 103.693H101.894V105.651ZM110.278 111.642C110.969 112.357 110.969 113.232 110.256 113.947L109.721 114.523H57.0767H4.43281L3.89767 113.947C3.18416 113.232 3.18416 112.357 3.87538 111.642L4.41051 111.089H57.0767H109.743L110.278 111.642ZM37.7896 36.9837C37.0092 37.7672 37.076 38.5506 38.0348 39.6337L38.8375 40.5554H34.9355C32.7727 40.5554 30.7436 40.6706 30.4092 40.7858C29.1828 41.2697 28.8706 42.3527 29.6734 43.4127L30.1193 44.0118H34.5788C37.0092 44.0118 39.0159 44.0809 39.0159 44.1501C39.0159 44.2422 38.6146 44.7492 38.124 45.3022C37.076 46.4774 36.9869 47.2378 37.7896 48.0443C38.8152 49.1273 39.2835 48.8969 42.1821 45.9013C44.345 43.6892 44.8132 43.067 44.8132 42.514C44.8132 41.961 44.345 41.3388 42.1821 39.1267C39.2835 36.1311 38.8152 35.9007 37.7896 36.9837ZM69.3402 42.514C69.3402 41.961 69.8085 41.3388 71.9713 39.1267C74.8699 36.1311 75.3382 35.9007 76.3639 36.9837C77.1443 37.7672 77.0774 38.5506 76.1186 39.6337L75.3159 40.5554H79.1956C83.4098 40.5554 84.3017 40.7167 84.703 41.6153C85.0598 42.4218 85.0152 42.6984 84.4801 43.4127L84.0341 44.0118H79.5747C77.1443 44.0118 75.1375 44.0809 75.1375 44.1501C75.1375 44.2422 75.5389 44.7492 76.0294 45.3022C77.0774 46.4774 77.1666 47.2378 76.3639 48.0443C75.3382 49.1273 74.8699 48.8969 71.9713 45.9013C69.8085 43.6892 69.3402 43.067 69.3402 42.514ZM37.678 53.5054C36.9645 54.3119 37.1429 55.2337 38.3024 56.501L38.8821 57.1462H34.5787C30.3422 57.1462 30.2976 57.1462 29.7625 57.7223C29.4503 58.0218 29.2051 58.5518 29.2051 58.8744C29.2051 59.197 29.4503 59.727 29.7625 60.0266C30.2976 60.6026 30.3199 60.6026 34.6679 60.6026H39.0605L38.1463 61.6626C37.1875 62.7917 37.0537 63.2986 37.4774 64.1282C37.8341 64.8195 38.1017 64.9808 39.0159 64.9808C39.6848 64.9808 40.0416 64.7043 42.2936 62.3769C44.5233 60.0726 44.8132 59.6809 44.8132 58.9896C44.8132 58.2983 44.5233 57.9066 42.2936 55.6023C39.997 53.2289 39.7071 52.9985 38.949 52.9985C38.4139 52.9985 37.9902 53.1598 37.678 53.5054ZM69.3402 58.9896C69.3402 58.2027 70.1028 57.4157 71.6279 55.8417L71.8821 55.5793C74.3125 53.0676 74.4463 52.9754 75.249 53.0446C75.851 53.0907 76.2301 53.298 76.5422 53.7359C77.0997 54.4963 76.9436 55.2336 76.0071 56.3397L75.3159 57.1462H79.5747C83.8111 57.1462 83.8557 57.1462 84.3909 57.7223C84.703 58.0218 84.9483 58.5518 84.9483 58.8744C84.9483 59.197 84.703 59.727 84.3909 60.0266C83.8557 60.6026 83.8334 60.6026 79.4632 60.6026H75.0929L75.8956 61.5243C76.9436 62.7226 77.0997 63.4599 76.5422 64.2434C76.2301 64.6812 75.851 64.8886 75.249 64.9347C74.4463 65.0038 74.3125 64.9116 71.8821 62.4L71.6279 62.1375C70.1028 60.5636 69.3402 59.7766 69.3402 58.9896ZM37.7896 69.935C37.0092 70.7184 37.076 71.5019 38.0348 72.5849L38.8375 73.5066H34.9355C32.7727 73.5066 30.7436 73.6218 30.4092 73.737C29.1828 74.2209 28.8706 75.3039 29.6734 76.3639L30.1193 76.963H34.5788C37.0092 76.963 39.0159 77.0322 39.0159 77.1013C39.0159 77.1935 38.6146 77.7004 38.124 78.2534C37.076 79.4286 36.9869 80.189 37.7896 80.9955C38.8152 82.0785 39.2835 81.8481 42.1821 78.8525C44.345 76.6404 44.8132 76.0183 44.8132 75.4652C44.8132 74.9122 44.345 74.2901 42.1821 72.0779C39.2835 69.0824 38.8152 68.852 37.7896 69.935ZM69.3402 75.4652C69.3402 74.9122 69.8085 74.2901 71.9713 72.0779C74.8699 69.0824 75.3382 68.852 76.3639 69.935C77.1443 70.7184 77.0774 71.5019 76.1186 72.5849L75.3159 73.5066H79.1956C83.4098 73.5066 84.3017 73.6679 84.703 74.5666C85.0598 75.3731 85.0152 75.6496 84.4801 76.3639L84.0341 76.963H79.5747C77.1443 76.963 75.1375 77.0322 75.1375 77.1013C75.1375 77.1935 75.5389 77.7004 76.0294 78.2534C77.0774 79.4286 77.1666 80.189 76.3639 80.9955C75.3382 82.0785 74.8699 81.8481 71.9713 78.8525C69.8085 76.6404 69.3402 76.0183 69.3402 75.4652Z" fill="#061b40"/>
</svg>
