<svg width="282" height="338" viewBox="0 0 282 338" fill="none" xmlns="http://www.w3.org/2000/svg">
<path d="M2.99999 166.5C5.5 84 63.4999 52.5 72.9999 49L71.4999 46.5C41.4999 63.5 5 97 0.5 166.5H2.99999Z" fill="#9D8638"/>
<path d="M141.5 20.5C140.947 20.1757 140.337 19.8011 139.668 19.4206C121.232 9.99852 109.398 47.5565 91 48.5C75.3999 49.3 68.4999 39.1667 66.9999 34C63 21.5 77.5835 4.55576 91 13.5C103 21.5 93.1666 30.1667 87.5 32.5C87.1666 32 90 31 92 26.5C95.6155 18.365 82.4999 5.50001 74.4999 17.5C66.4999 29.5 77 38.5 81 41.5C85 44.5 97.5 49 112.5 30C125.783 13.1749 134.492 16.4767 139.668 19.4206C140.271 19.729 140.882 20.0879 141.5 20.5Z" fill="url(#paint0_linear_9_165)"/>
<path d="M141.5 20.5C136.667 17.6667 127.5 11 112.5 30C97.5 49 85 44.5 81 41.5C77 38.5 66.4999 29.5 74.4999 17.5C82.4999 5.50001 95.6155 18.365 92 26.5C90 31 87.1666 32 87.5 32.5C93.1666 30.1667 103 21.5 91 13.5C77.5835 4.55576 63 21.5 66.9999 34C68.4999 39.1667 75.3999 49.3 91 48.5C110 47.5256 122 7.5 141.5 20.5Z" stroke="#9D8638"/>
<path d="M132 15C127.901 15 123.516 16.7229 118.894 19.3005C104.438 28.6568 84.2189 48.6466 64 43.5C47.4926 39.2981 34.6519 17.9702 56.5 5.5C42 18 48.1692 31.9953 59.5 38.5C80.825 50.7422 101.526 28.9866 118.894 19.3005C124.1 15.9312 128.558 13.9409 132 15Z" fill="url(#paint1_linear_9_165)"/>
<path d="M132 15C112.5 15 86.4999 54 59.5 38.5C48.1692 31.9953 42 18 56.5 5.5C34.6519 17.9702 47.4926 39.2981 64 43.5C91.5 50.5 119 11 132 15Z" stroke="#9D8638"/>
<path d="M40.5 72.5C25 46 49.5 35.5 79 41.5C79 41.5 55.5 33 41.4999 43C31.9546 49.8181 25 62.5 40.5 72.5Z" fill="url(#paint2_linear_9_165)" stroke="#9D8638"/>
<path d="M105.5 13C109 14 114 14 120.5 13C108.5 19.5 92.3413 14.5542 98.5 1C98 8 102 12 105.5 13Z" fill="url(#paint3_linear_9_165)"/>
<path d="M127.5 34C127.5 33 124 25 141 25C111.5 20 125 51.5 139 38.5C130.5 41.4215 127.5 35 127.5 34Z" fill="url(#paint4_linear_9_165)"/>
<path d="M105.5 13C109 14 114 14 120.5 13C108.5 19.5 92.3413 14.5542 98.5 1C98 8 102 12 105.5 13Z" stroke="#9D8638"/>
<path d="M127.5 34C127.5 33 124 25 141 25C111.5 20 125 51.5 139 38.5C130.5 41.4215 127.5 35 127.5 34Z" stroke="#9D8638"/>
<path d="M7.49997 166.5C7.99998 95 64.4999 54.5486 79.4999 51L76.9998 47.5C42.5 65.5 7.49999 103.5 3.99997 166.5H7.49997Z" fill="#9D8638"/>
<path d="M279.491 166.5C276.982 84 218.777 52.5 209.243 49L210.748 46.5C240.855 63.5 277.484 97 282 166.5H279.491Z" fill="#9D8638"/>
<path d="M140.5 20.5C141.055 20.1757 141.667 19.8011 142.339 19.4206C160.84 9.99845 172.716 47.5565 191.179 48.5C206.834 49.3 213.759 39.1667 215.264 34C219.278 21.5 204.643 4.55576 191.179 13.5C179.137 21.5 189.005 30.1667 194.692 32.5C195.026 32 192.183 31 190.176 26.5C186.547 18.365 199.709 5.50001 207.738 17.5C215.766 29.5 205.229 38.5 201.215 41.5C197.2 44.5 184.656 49 169.603 30C156.273 13.1749 147.533 16.4767 142.339 19.4206C141.733 19.7291 141.12 20.0879 140.5 20.5Z" fill="url(#paint5_linear_9_165)"/>
<path d="M140.5 20.5C145.35 17.6667 154.55 11 169.603 30C184.656 49 197.2 44.5 201.215 41.5C205.229 38.5 215.766 29.5 207.738 17.5C199.709 5.50001 186.547 18.365 190.176 26.5C192.183 31 195.026 32 194.692 32.5C189.005 30.1667 179.137 21.5 191.179 13.5C204.643 4.55576 219.278 21.5 215.264 34C213.759 39.1667 206.834 49.3 191.179 48.5C172.112 47.5256 160.069 7.5 140.5 20.5Z" stroke="#9D8638"/>
<path d="M150.034 15C154.147 15 158.548 16.7229 163.186 19.3005C177.694 28.6568 197.984 48.6466 218.275 43.5C234.841 39.2981 247.727 17.9702 225.801 5.5C240.353 18 234.162 31.9953 222.791 38.5C201.39 50.7422 180.615 28.9867 163.186 19.3005C157.962 15.9313 153.488 13.9409 150.034 15Z" fill="url(#paint6_linear_9_165)"/>
<path d="M150.034 15C169.603 15 195.695 54 222.791 38.5C234.162 31.9953 240.353 18 225.801 5.5C247.727 17.9702 234.841 39.2981 218.275 43.5C190.677 50.5 163.08 11 150.034 15Z" stroke="#9D8638"/>
<path d="M241.858 72.5C257.413 46 232.826 35.5 203.222 41.5C203.222 41.5 226.805 33 240.855 43C250.434 49.8181 257.413 62.5 241.858 72.5Z" fill="url(#paint7_linear_9_165)" stroke="#9D8638"/>
<path d="M176.628 13C173.115 14 168.098 14 161.574 13C173.617 19.5 189.833 14.5542 183.653 1C184.154 8 180.14 12 176.628 13Z" fill="url(#paint8_linear_9_165)"/>
<path d="M154.55 34C154.55 33 158.062 25 141.002 25C170.606 20 157.059 51.5 143.009 38.5C151.539 41.4215 154.55 35 154.55 34Z" fill="url(#paint9_linear_9_165)"/>
<path d="M176.628 13C173.115 14 168.098 14 161.574 13C173.617 19.5 189.833 14.5542 183.653 1C184.154 8 180.14 12 176.628 13Z" stroke="#9D8638"/>
<path d="M154.55 34C154.55 33 158.062 25 141.002 25C170.606 20 157.059 51.5 143.009 38.5C151.539 41.4215 154.55 35 154.55 34Z" stroke="#9D8638"/>
<path d="M274.975 166.5C274.473 95 217.773 54.5486 202.72 51L205.229 47.5C239.851 65.5 274.975 103.5 278.488 166.5H274.975Z" fill="#9D8638"/>
<path d="M2.99999 166.5C5.5 251.492 63.4999 283.944 72.9999 287.55L71.4999 290.125C41.4999 272.612 5 238.1 0.5 166.5H2.99999Z" fill="#9D8638"/>
<path d="M141.5 316.911C140.947 317.245 140.337 317.631 139.668 318.023C121.232 327.73 109.398 289.037 91 288.065C75.3999 287.241 68.4999 297.68 66.9999 303.003C63 315.881 77.5835 333.337 91 324.122C103 315.881 93.1666 306.952 87.5 304.548C87.1666 305.063 90 306.094 92 310.73C95.6155 319.11 82.4999 332.364 74.4999 320.001C66.4999 307.639 77 298.367 81 295.276C85 292.186 97.5 287.55 112.5 307.124C125.783 324.457 134.492 321.056 139.668 318.023C140.271 317.705 140.882 317.335 141.5 316.911Z" fill="url(#paint10_linear_9_165)"/>
<path d="M141.5 316.911C136.667 319.83 127.5 326.698 112.5 307.124C97.5 287.55 85 292.186 81 295.276C77 298.367 66.4999 307.639 74.4999 320.001C82.4999 332.364 95.6155 319.11 92 310.73C90 306.094 87.1666 305.063 87.5 304.548C93.1666 306.952 103 315.881 91 324.122C77.5835 333.337 63 315.881 66.9999 303.003C68.4999 297.68 75.3999 287.241 91 288.065C110 289.069 122 330.304 141.5 316.911Z" stroke="#9D8638"/>
<path d="M132 322.577C127.901 322.577 123.516 320.802 118.894 318.147C104.438 308.508 84.2189 287.914 64 293.216C47.4926 297.545 34.6519 319.517 56.5 332.364C42 319.486 48.1692 305.068 59.5 298.367C80.825 285.755 101.526 308.168 118.894 318.147C124.1 321.618 128.558 323.668 132 322.577Z" fill="url(#paint11_linear_9_165)"/>
<path d="M132 322.577C112.5 322.577 86.4999 282.399 59.5 298.367C48.1692 305.068 42 319.486 56.5 332.364C34.6519 319.517 47.4926 297.545 64 293.216C91.5 286.005 119 326.698 132 322.577Z" stroke="#9D8638"/>
<path d="M40.5 263.34C25 290.64 49.5 301.458 79 295.276C79 295.276 55.5 304.033 41.4999 293.731C31.9546 286.707 25 273.642 40.5 263.34Z" fill="url(#paint12_linear_9_165)" stroke="#9D8638"/>
<path d="M105.5 324.637C109 323.607 114 323.607 120.5 324.637C108.5 317.941 92.3413 323.036 98.5 337C98 329.789 102 325.668 105.5 324.637Z" fill="url(#paint13_linear_9_165)"/>
<path d="M127.5 303.003C127.5 304.033 124 312.275 141 312.275C111.5 317.426 125 284.974 139 298.367C130.5 295.357 127.5 301.973 127.5 303.003Z" fill="url(#paint14_linear_9_165)"/>
<path d="M105.5 324.637C109 323.607 114 323.607 120.5 324.637C108.5 317.941 92.3413 323.036 98.5 337C98 329.789 102 325.668 105.5 324.637Z" stroke="#9D8638"/>
<path d="M127.5 303.003C127.5 304.033 124 312.275 141 312.275C111.5 317.426 125 284.974 139 298.367C130.5 295.357 127.5 301.973 127.5 303.003Z" stroke="#9D8638"/>
<path d="M7.49997 166.5C7.99998 240.16 64.4999 281.834 79.4999 285.489L76.9998 289.095C42.5 270.551 7.49999 231.403 3.99997 166.5H7.49997Z" fill="#9D8638"/>
<path d="M279.491 166.5C276.982 251.492 218.777 283.944 209.243 287.55L210.748 290.125C240.855 272.612 277.484 238.1 282 166.5H279.491Z" fill="#9D8638"/>
<path d="M140.5 316.911C141.055 317.245 141.667 317.631 142.339 318.023C160.84 327.73 172.716 289.037 191.179 288.065C206.834 287.241 213.759 297.68 215.264 303.003C219.278 315.881 204.643 333.337 191.179 324.122C179.137 315.881 189.005 306.952 194.692 304.548C195.026 305.063 192.183 306.094 190.176 310.73C186.547 319.11 199.709 332.364 207.738 320.001C215.766 307.639 205.229 298.367 201.215 295.276C197.2 292.186 184.656 287.55 169.603 307.124C156.273 324.457 147.533 321.056 142.339 318.023C141.733 317.705 141.12 317.335 140.5 316.911Z" fill="url(#paint15_linear_9_165)"/>
<path d="M140.5 316.911C145.35 319.83 154.55 326.698 169.603 307.124C184.656 287.55 197.2 292.186 201.215 295.276C205.229 298.367 215.766 307.639 207.738 320.001C199.709 332.364 186.547 319.11 190.176 310.73C192.183 306.094 195.026 305.063 194.692 304.548C189.005 306.952 179.137 315.881 191.179 324.122C204.643 333.337 219.278 315.881 215.264 303.003C213.759 297.68 206.834 287.241 191.179 288.065C172.112 289.069 160.069 330.304 140.5 316.911Z" stroke="#9D8638"/>
<path d="M150.034 322.577C154.147 322.577 158.548 320.802 163.186 318.147C177.694 308.508 197.984 287.914 218.275 293.216C234.841 297.545 247.727 319.517 225.801 332.364C240.353 319.486 234.162 305.068 222.791 298.367C201.39 285.755 180.615 308.168 163.186 318.147C157.962 321.618 153.488 323.668 150.034 322.577Z" fill="url(#paint16_linear_9_165)"/>
<path d="M150.034 322.577C169.603 322.577 195.695 282.399 222.791 298.367C234.162 305.068 240.353 319.486 225.801 332.364C247.727 319.517 234.841 297.545 218.275 293.216C190.677 286.005 163.08 326.698 150.034 322.577Z" stroke="#9D8638"/>
<path d="M241.858 263.34C257.413 290.64 232.826 301.458 203.222 295.276C203.222 295.276 226.805 304.033 240.855 293.731C250.434 286.707 257.413 273.642 241.858 263.34Z" fill="url(#paint17_linear_9_165)" stroke="#9D8638"/>
<path d="M176.628 324.637C173.115 323.607 168.098 323.607 161.574 324.637C173.617 317.941 189.833 323.036 183.653 337C184.154 329.789 180.14 325.668 176.628 324.637Z" fill="url(#paint18_linear_9_165)"/>
<path d="M154.55 303.003C154.55 304.033 158.062 312.275 141.002 312.275C170.606 317.426 157.059 284.974 143.009 298.367C151.539 295.357 154.55 301.973 154.55 303.003Z" fill="url(#paint19_linear_9_165)"/>
<path d="M176.628 324.637C173.115 323.607 168.098 323.607 161.574 324.637C173.617 317.941 189.833 323.036 183.653 337C184.154 329.789 180.14 325.668 176.628 324.637Z" stroke="#9D8638"/>
<path d="M154.55 303.003C154.55 304.033 158.062 312.275 141.002 312.275C170.606 317.426 157.059 284.974 143.009 298.367C151.539 295.357 154.55 301.973 154.55 303.003Z" stroke="#9D8638"/>
<path d="M274.975 166.5C274.473 240.16 217.773 281.834 202.72 285.489L205.229 289.095C239.851 270.551 274.975 231.403 278.488 166.5H274.975Z" fill="#9D8638"/>
<defs>
<linearGradient id="paint0_linear_9_165" x1="105.914" y1="10.9959" x2="105.261" y2="34.8237" gradientUnits="userSpaceOnUse">
<stop stop-color="#F3D385"/>
<stop offset="1" stop-color="#FFE59F"/>
</linearGradient>
<linearGradient id="paint1_linear_9_165" x1="88.459" y1="5.5" x2="87.8247" y2="30.1452" gradientUnits="userSpaceOnUse">
<stop stop-color="#F3D385"/>
<stop offset="1" stop-color="#FFE59F"/>
</linearGradient>
<linearGradient id="paint2_linear_9_165" x1="55.1901" y1="38.1303" x2="54.2824" y2="59.9192" gradientUnits="userSpaceOnUse">
<stop stop-color="#F3D385"/>
<stop offset="1" stop-color="#FFE59F"/>
</linearGradient>
<linearGradient id="paint3_linear_9_165" x1="120.323" y1="1" x2="120.323" y2="41.6709" gradientUnits="userSpaceOnUse">
<stop stop-color="#FADD94"/>
<stop offset="1" stop-color="#F9DC92"/>
</linearGradient>
<linearGradient id="paint4_linear_9_165" x1="120.323" y1="1" x2="120.323" y2="41.6709" gradientUnits="userSpaceOnUse">
<stop stop-color="#FADD94"/>
<stop offset="1" stop-color="#F9DC92"/>
</linearGradient>
<linearGradient id="paint5_linear_9_165" x1="176.213" y1="10.9959" x2="176.863" y2="34.8238" gradientUnits="userSpaceOnUse">
<stop stop-color="#F3D385"/>
<stop offset="1" stop-color="#FFE59F"/>
</linearGradient>
<linearGradient id="paint6_linear_9_165" x1="193.729" y1="5.5" x2="194.361" y2="30.1453" gradientUnits="userSpaceOnUse">
<stop stop-color="#F3D385"/>
<stop offset="1" stop-color="#FFE59F"/>
</linearGradient>
<linearGradient id="paint7_linear_9_165" x1="227.116" y1="38.1303" x2="228.02" y2="59.9195" gradientUnits="userSpaceOnUse">
<stop stop-color="#F3D385"/>
<stop offset="1" stop-color="#FFE59F"/>
</linearGradient>
<linearGradient id="paint8_linear_9_165" x1="161.752" y1="1" x2="161.752" y2="41.6709" gradientUnits="userSpaceOnUse">
<stop stop-color="#FADD94"/>
<stop offset="1" stop-color="#F9DC92"/>
</linearGradient>
<linearGradient id="paint9_linear_9_165" x1="161.752" y1="1" x2="161.752" y2="41.6709" gradientUnits="userSpaceOnUse">
<stop stop-color="#FADD94"/>
<stop offset="1" stop-color="#F9DC92"/>
</linearGradient>
<linearGradient id="paint10_linear_9_165" x1="105.914" y1="326.702" x2="105.221" y2="302.156" gradientUnits="userSpaceOnUse">
<stop stop-color="#F3D385"/>
<stop offset="1" stop-color="#FFE59F"/>
</linearGradient>
<linearGradient id="paint11_linear_9_165" x1="88.459" y1="332.364" x2="87.7858" y2="306.975" gradientUnits="userSpaceOnUse">
<stop stop-color="#F3D385"/>
<stop offset="1" stop-color="#FFE59F"/>
</linearGradient>
<linearGradient id="paint12_linear_9_165" x1="55.1901" y1="298.748" x2="54.2269" y2="276.303" gradientUnits="userSpaceOnUse">
<stop stop-color="#F3D385"/>
<stop offset="1" stop-color="#FFE59F"/>
</linearGradient>
<linearGradient id="paint13_linear_9_165" x1="120.323" y1="337" x2="120.323" y2="295.1" gradientUnits="userSpaceOnUse">
<stop stop-color="#FADD94"/>
<stop offset="1" stop-color="#F9DC92"/>
</linearGradient>
<linearGradient id="paint14_linear_9_165" x1="120.323" y1="337" x2="120.323" y2="295.1" gradientUnits="userSpaceOnUse">
<stop stop-color="#FADD94"/>
<stop offset="1" stop-color="#F9DC92"/>
</linearGradient>
<linearGradient id="paint15_linear_9_165" x1="176.213" y1="326.702" x2="176.902" y2="302.155" gradientUnits="userSpaceOnUse">
<stop stop-color="#F3D385"/>
<stop offset="1" stop-color="#FFE59F"/>
</linearGradient>
<linearGradient id="paint16_linear_9_165" x1="193.729" y1="332.364" x2="194.4" y2="306.975" gradientUnits="userSpaceOnUse">
<stop stop-color="#F3D385"/>
<stop offset="1" stop-color="#FFE59F"/>
</linearGradient>
<linearGradient id="paint17_linear_9_165" x1="227.116" y1="298.748" x2="228.076" y2="276.303" gradientUnits="userSpaceOnUse">
<stop stop-color="#F3D385"/>
<stop offset="1" stop-color="#FFE59F"/>
</linearGradient>
<linearGradient id="paint18_linear_9_165" x1="161.752" y1="337" x2="161.752" y2="295.1" gradientUnits="userSpaceOnUse">
<stop stop-color="#FADD94"/>
<stop offset="1" stop-color="#F9DC92"/>
</linearGradient>
<linearGradient id="paint19_linear_9_165" x1="161.752" y1="337" x2="161.752" y2="295.1" gradientUnits="userSpaceOnUse">
<stop stop-color="#FADD94"/>
<stop offset="1" stop-color="#F9DC92"/>
</linearGradient>
</defs>
</svg>
