<svg width="126" height="70" viewBox="0 0 126 70" fill="none" xmlns="http://www.w3.org/2000/svg">
<path fill-rule="evenodd" clip-rule="evenodd" d="M10.1937 0.136749C6.23205 0.900955 2.68871 3.48576 1.16311 6.7224C0.0065975 9.19483 -0.0672222 9.93656 0.031204 21.557C0.12963 31.7389 0.178843 32.6155 0.670974 34.6608C2.44265 41.9208 6.45351 48.1918 12.236 52.7096C18.2893 57.4297 25.2283 60.0369 33.2008 60.5764C35.4646 60.7337 35.5877 60.7787 36.8918 61.6777C41.1733 64.6447 46.9559 67.1845 52.2709 68.3758C56.5524 69.3647 58.2257 69.5446 62.9747 69.5446C67.6992 69.5446 69.397 69.3647 73.6048 68.3982C79.0674 67.162 84.7023 64.7121 89.0577 61.6777C90.411 60.7562 90.4849 60.7337 92.8717 60.5764C97.6946 60.2842 101.927 59.2053 106.479 57.1375C109.924 55.6091 111.204 54.5751 111.204 53.3839C111.204 52.7545 111.031 52.3724 110.49 51.8779C109.407 50.889 108.448 51.0013 105.864 52.3499C104.658 52.9793 102.862 53.7884 101.828 54.1481C99.7615 54.8673 96.4396 55.7664 96.4396 55.5866C96.4396 55.5191 96.9318 54.8898 97.5223 54.193C101.533 49.4055 104.117 44.3258 105.569 38.3021C106.085 36.1668 106.11 35.3576 106.258 22.7932L106.405 9.53198L107.094 8.25081C108.669 5.30637 112.262 3.86787 115.731 4.78941C117.527 5.26142 119.299 6.7224 120.234 8.49805L120.923 9.75674L120.997 19.6465C121.071 29.9632 120.948 32.3233 120.037 35.2677C119.791 36.1443 119.57 37.1782 119.57 37.6053C119.57 39.6956 122.621 40.5272 123.901 38.7516C124.442 37.9874 125.18 35.4026 125.598 32.6829C126.115 29.3564 126.115 11.0379 125.598 8.99254C123.704 1.73259 115.559 -1.99853 108.349 1.12572C105.47 2.36194 102.911 5.01418 101.976 7.73385L101.533 9.03749L98.0637 8.90263C91.9859 8.67787 87.7043 7.62146 80.6915 4.58712C73.2849 1.37296 69.6677 0.563805 62.9747 0.563805C56.331 0.563805 52.6154 1.41792 45.1104 4.65455C38.2206 7.62146 33.9144 8.67787 27.8858 8.90263L24.4163 9.03749L23.8996 7.62146C22.2017 3.03623 17.3542 -0.0880127 12.0884 0.00189209C11.3256 0.0243683 10.4644 0.0693207 10.1937 0.136749ZM15.5825 5.23895C17.1081 5.93572 18.2647 7.03707 19.0275 8.49805C19.5196 9.5095 19.5442 9.93656 19.6918 22.7932C19.8395 35.3576 19.8641 36.1668 20.3808 38.3021C21.8326 44.3258 24.4163 49.4055 28.4272 54.193C29.0177 54.8898 29.5098 55.5191 29.5098 55.5866C29.5098 55.7439 26.3848 54.9348 24.4655 54.2605C16.0747 51.3834 9.4309 44.9776 6.50273 36.9984C5.02633 32.9526 4.87869 31.3793 4.95251 19.8937L4.95284 19.8492C5.02633 9.84631 5.02717 9.7326 5.59228 8.61044C6.33048 7.14946 8.17597 5.48618 9.72618 4.92427C11.3994 4.29492 13.7617 4.42979 15.5825 5.23895ZM67.5762 5.2839C70.9227 5.73343 74.466 6.78983 78.0093 8.40815C85.2683 11.7572 92.3549 13.4429 98.9741 13.4654H101.386L101.287 24.5239C101.213 34.7507 101.164 35.7622 100.672 37.6952C99.9092 40.8194 99.2448 42.5277 97.6454 45.4946C92.1827 55.6315 81.6265 62.7117 68.8803 64.757C66.1736 65.1841 59.2345 65.1167 56.331 64.6222C44.1015 62.5543 33.6191 55.4068 28.3041 45.4946C26.7047 42.5277 26.0403 40.8194 25.2775 37.6952C24.7854 35.7622 24.7362 34.7507 24.6624 24.5239L24.5639 13.4654H26.9754C33.7176 13.4429 40.1645 11.8695 48.4569 8.22833C55.1991 5.26142 60.9324 4.36236 67.5762 5.2839ZM58.6686 15.8479C51.5573 16.5222 41.3702 18.7249 37.3101 20.4556C36.5473 20.7703 35.9075 21.6918 35.9075 22.456C35.9075 23.5799 37.1133 24.7037 38.319 24.7037C38.5404 24.7037 39.8938 24.3441 41.2964 23.917C56.7001 19.1295 69.0033 19.0845 84.2594 23.7822C87.5075 24.7936 87.7535 24.8161 88.6886 24.434C90.4849 23.6922 90.4356 21.2873 88.5901 20.4331C86.0311 19.2644 77.1727 17.1066 71.8331 16.3649C68.6589 15.9378 60.9816 15.6231 58.6686 15.8479ZM37.2609 35.6723C35.5631 34.9755 35.5138 32.593 37.1625 31.7613C38.0729 31.2893 87.8027 31.3118 88.787 31.7613C90.411 32.548 90.411 34.8406 88.787 35.6273C88.1964 35.897 84.2348 35.942 62.9993 35.942C44.0523 35.942 37.753 35.8746 37.2609 35.6723ZM37.1625 42.9997C36.006 43.5841 35.6123 44.8877 36.2766 46.034C36.6949 46.7982 37.8761 47.2927 41.9361 48.4165C50.3024 50.7316 55.6174 51.5183 62.8517 51.5408C69.84 51.5408 74.8843 50.844 82.5369 48.8211C87.286 47.5624 89.2545 46.7982 89.6728 46.0565C90.3372 44.8652 89.9681 43.5616 88.787 42.9997C87.8766 42.5726 87.3352 42.5951 85.8096 43.1345C81.159 44.7528 72.6697 46.506 67.4039 46.978C60.0466 47.6074 50.7699 46.3936 41.6409 43.5841C38.4666 42.6176 38.0483 42.5501 37.1625 42.9997ZM116.863 48.7537C114.427 48.7537 113.517 45.6519 115.657 44.573C117.281 43.7414 119.324 44.8427 119.324 46.5285C119.324 47.6523 118.118 48.7537 116.863 48.7537Z"  fill="#061b40"/>
</svg>
