<svg width="131" height="130" viewBox="0 0 131 130" fill="none" xmlns="http://www.w3.org/2000/svg">
<path fill-rule="evenodd" clip-rule="evenodd" d="M23.1151 0.429547C21.7765 0.0728767 20.4109 -0.0616752 19.0182 0.0258912C16.1642 0.500375 13.4329 1.44224 10.8245 2.85148C1.01144 9.3403 -2.12951 18.1759 1.4016 29.3582C5.09265 37.6103 11.5111 42.185 20.657 43.0825C21.738 43.1872 22.694 42.9181 23.5248 42.2752C24.3338 40.6797 23.9241 39.5586 22.2958 38.9114L19.0182 38.6423C8.32789 35.8805 3.50265 29.0633 4.54255 18.1904C7.06405 9.36581 12.9818 4.70135 22.2958 4.197C22.7953 4.1234 23.205 3.89915 23.5248 3.52424C24.1661 2.38109 24.0296 1.3495 23.1151 0.429547ZM23.1151 9.04087C22.0513 8.70013 20.9588 8.56558 19.8376 8.63721C13.1065 10.2476 9.3738 14.4635 8.63944 21.2851C9.24166 28.9198 13.3841 33.3154 21.0667 34.4712C22.0064 34.5215 22.8258 34.2524 23.5248 33.6639C24.3338 32.0683 23.9241 30.9473 22.2958 30.3001C17.6487 30.0541 14.5988 27.7667 13.146 23.4379C12.6456 16.9363 15.6955 13.3931 22.2958 12.8083C22.7953 12.7347 23.205 12.5105 23.5248 12.1356C24.1661 10.9924 24.0296 9.96083 23.1151 9.04087ZM63.1281 19.9396C61.6767 16.3749 58.9911 14.7603 55.0709 15.0957C51.5208 16.5291 49.9277 19.1304 50.2912 22.8997C51.6183 26.7145 54.304 28.3741 58.3484 27.8781C62.0116 26.446 63.6047 23.7999 63.1281 19.9396ZM58.7581 22.3615C59.0744 20.2058 58.1185 19.2191 55.8903 19.4014C55.3509 19.7099 54.9412 20.1583 54.6612 20.7469C54.2895 22.0316 54.6992 22.9734 55.8903 23.5725C57.1942 23.9387 58.1501 23.5351 58.7581 22.3615ZM74.736 15.0957C78.6562 14.7603 81.3418 16.3749 82.7932 19.9396C83.2234 24.7638 80.993 27.4548 76.1016 28.0127C71.5232 27.221 69.4748 24.5299 69.9563 19.9396C70.8721 17.6472 72.4652 16.0326 74.736 15.0957ZM75.5554 19.4014C77.7835 19.2191 78.7395 20.2058 78.4232 22.3615C77.8152 23.5351 76.8593 23.9387 75.5554 23.5725C74.3643 22.9734 73.9546 22.0316 74.3263 20.7469C74.6063 20.1583 75.0159 19.7099 75.5554 19.4014ZM102.458 19.9396C101.007 16.3749 98.3213 14.7603 94.4011 15.0957C92.1303 16.0326 90.5372 17.6472 89.6214 19.9396C89.1399 24.5299 91.1883 27.221 95.7667 28.0127C100.658 27.4548 102.888 24.7638 102.458 19.9396ZM98.0883 22.3615C98.4046 20.2058 97.4486 19.2191 95.2205 19.4014C94.681 19.7099 94.2713 20.1583 93.9914 20.7469C93.6197 22.0316 94.0294 22.9734 95.2205 23.5725C96.5244 23.9387 97.4803 23.5351 98.0883 22.3615ZM105.326 38.9114C93.9463 38.7768 82.566 38.7319 71.1853 38.7768C69.3797 40.1576 69.3797 41.5481 71.1853 42.9479C82.5657 43.1274 93.9458 43.1274 105.326 42.9479C105.826 42.8745 106.235 42.65 106.555 42.2752C107.364 40.6797 106.955 39.5586 105.326 38.9114ZM106.965 61.1124C108.18 61.0161 109.136 61.4644 109.833 62.458C118.187 79.3326 121.192 97.0935 118.846 115.74C117.436 117.237 116.161 117.148 115.022 115.471C116.788 97.474 113.693 80.3412 105.736 64.0726C105.554 63.5344 105.554 62.9962 105.736 62.458C106.202 62.0443 106.612 61.5957 106.965 61.1124ZM116.251 0.160442C87.391 0.0258901 58.5306 -0.0189695 29.6702 0.0258901C29.1307 0.334391 28.7211 0.782879 28.4411 1.37141C28.1718 15.0217 28.2627 28.6564 28.7142 42.2752C28.9609 42.5984 29.2793 42.8228 29.6702 42.9479L43.5996 43.217C53.5018 44.2601 61.65 48.5208 68.0444 55.9995C68.1881 63.2028 67.3231 70.2894 65.4497 77.2586C65.4262 78.3211 65.8812 79.0834 66.8153 79.546C71.1845 79.6806 75.5546 79.7255 79.9254 79.6806C82.5231 91.5572 83.57 103.577 83.0663 115.74C84.2337 123.02 88.4671 127.46 95.7667 129.061C101.958 129.241 108.148 129.241 114.339 129.061C121.996 127.886 126.502 123.536 127.859 116.01C129.978 95.815 126.519 76.619 117.48 58.4214C116.393 55.3819 117.076 52.8254 119.529 50.7519C123.035 48.7103 126.586 46.7369 130.181 44.8317C130.664 44.3023 130.937 43.6745 131 42.9479C126.603 28.8743 122.096 14.8362 117.48 0.833201C117.16 0.458286 116.751 0.234042 116.251 0.160442ZM104.507 4.33155H43.5996V39.0459C54.4397 40.058 63.4985 44.5432 70.7757 52.5011C78.9236 62.2833 83.7942 73.496 85.3879 86.1391C89.85 86.0941 94.311 86.1391 98.7711 86.2736C99.8027 86.4833 100.349 87.1111 100.41 88.1573C100.444 89.3285 99.8975 90.0459 98.7711 90.3102C94.5841 90.4447 90.3962 90.4897 86.2073 90.4447C86.5979 92.5785 86.78 94.7313 86.7535 96.9032C91.4887 96.8583 96.2228 96.9032 100.956 97.0378C101.988 97.2474 102.534 97.8752 102.595 98.9215C102.629 100.093 102.082 100.81 100.956 101.074C96.405 101.209 91.8528 101.254 87.2998 101.209V107.667C91.8528 107.622 96.405 107.667 100.956 107.802C101.988 108.012 102.534 108.639 102.595 109.686C102.629 110.857 102.082 111.574 100.956 111.838C96.405 111.973 91.8528 112.018 87.2998 111.973C86.8142 118.529 89.7276 122.79 96.0398 124.755C101.958 124.935 107.875 124.935 113.793 124.755C118.572 124.175 121.713 121.618 123.216 117.086C125.119 102.259 123.753 87.7276 119.119 73.4912C117.175 68.2254 115.081 63.0228 112.837 57.8832C112.157 54.4252 112.976 51.3755 115.295 48.7337C116.259 48.052 117.124 47.2896 117.89 46.4463C113.344 32.4276 108.883 18.3894 104.507 4.33155ZM72.2779 62.1888C74.9856 66.2251 77.0797 70.5757 78.5598 75.2404C75.8285 75.4199 73.0972 75.4199 70.366 75.2404C71.3429 70.9447 71.9802 66.5941 72.2779 62.1888Z" fill="#020202"/>
</svg>
